<?xml version="1.0"?>
<!DOCTYPE svg PUBLIC "-//W3C//DTD SVG 1.1//EN" "http://www.w3.org/Graphics/SVG/1.1/DTD/svg11.dtd">
<svg width="442.68mm" height="51.18mm" viewBox="0 0 442.68 51.18" xmlns="http://www.w3.org/2000/svg" version="1.1">
<g id="Part__Feature" transform="translate(221.340000,25.590000) scale(1,-1)">
<path id="Part__Feature_f0000"  d="M -57.4205 3.25 A 1.0795 1.0795 0 0 0 -59.5795 3.25 L -59.5795 3.25 A 1.0795 1.0795 0 0 1 -57.4205 3.25 L -57.4205 3.25 Z " stroke="#191919" stroke-width="0.35 px" style="stroke-width:0.35;stroke-miterlimit:4;stroke-dasharray:none;fill:#cccccc;fill-rule: evenodd "/>
<path id="Part__Feature_f0001"  d="M 59.5795 -3.25 A 1.0795 1.0795 0 0 0 57.4205 -3.25 L 57.4205 -3.25 A 1.0795 1.0795 0 0 1 59.5795 -3.25 L 59.5795 -3.25 Z " stroke="#191919" stroke-width="0.35 px" style="stroke-width:0.35;stroke-miterlimit:4;stroke-dasharray:none;fill:#cccccc;fill-rule: evenodd "/>
<path id="Part__Feature_f0002"  d="M 212.1082 15.0 A 2.1082 2.1082 0 0 0 207.8918 15.0 L 207.8918 15.0 A 2.1082 2.1082 0 0 1 212.1082 15.0 L 212.1082 15.0 Z " stroke="#191919" stroke-width="0.35 px" style="stroke-width:0.35;stroke-miterlimit:4;stroke-dasharray:none;fill:#cccccc;fill-rule: evenodd "/>
<path id="Part__Feature_f0003"  d="M 212.1082 -15.0 A 2.1082 2.1082 0 0 0 207.8918 -15.0 L 207.8918 -15.0 A 2.1082 2.1082 0 0 1 212.1082 -15.0 L 212.1082 -15.0 Z " stroke="#191919" stroke-width="0.35 px" style="stroke-width:0.35;stroke-miterlimit:4;stroke-dasharray:none;fill:#cccccc;fill-rule: evenodd "/>
<path id="Part__Feature_f0004"  d="M 199.1082 -15.0 A 2.1082 2.1082 0 0 0 194.8918 -15.0 L 194.8918 -15.0 A 2.1082 2.1082 0 0 1 199.1082 -15.0 L 199.1082 -15.0 Z " stroke="#191919" stroke-width="0.35 px" style="stroke-width:0.35;stroke-miterlimit:4;stroke-dasharray:none;fill:#cccccc;fill-rule: evenodd "/>
<path id="Part__Feature_f0005"  d="M 199.1082 15.0 A 2.1082 2.1082 0 0 0 194.8918 15.0 L 194.8918 15.0 A 2.1082 2.1082 0 0 1 199.1082 15.0 L 199.1082 15.0 Z " stroke="#191919" stroke-width="0.35 px" style="stroke-width:0.35;stroke-miterlimit:4;stroke-dasharray:none;fill:#cccccc;fill-rule: evenodd "/>
<path id="Part__Feature_f0006"  d="M -190.3918 15.0 A 2.1082 2.1082 0 0 0 -194.6082 15.0 L -194.6082 15.0 A 2.1082 2.1082 0 0 1 -190.3918 15.0 L -190.3918 15.0 Z " stroke="#191919" stroke-width="0.35 px" style="stroke-width:0.35;stroke-miterlimit:4;stroke-dasharray:none;fill:#cccccc;fill-rule: evenodd "/>
<path id="Part__Feature_f0007"  d="M -190.3918 -15.0 A 2.1082 2.1082 0 0 0 -194.6082 -15.0 L -194.6082 -15.0 A 2.1082 2.1082 0 0 1 -190.3918 -15.0 L -190.3918 -15.0 Z " stroke="#191919" stroke-width="0.35 px" style="stroke-width:0.35;stroke-miterlimit:4;stroke-dasharray:none;fill:#cccccc;fill-rule: evenodd "/>
<path id="Part__Feature_f0008"  d="M -203.3918 -15.0 A 2.1082 2.1082 0 0 0 -207.6082 -15.0 L -207.6082 -15.0 A 2.1082 2.1082 0 0 1 -203.3918 -15.0 L -203.3918 -15.0 Z " stroke="#191919" stroke-width="0.35 px" style="stroke-width:0.35;stroke-miterlimit:4;stroke-dasharray:none;fill:#cccccc;fill-rule: evenodd "/>
<path id="Part__Feature_f0009"  d="M -203.3918 15.0 A 2.1082 2.1082 0 0 0 -207.6082 15.0 L -207.6082 15.0 A 2.1082 2.1082 0 0 1 -203.3918 15.0 L -203.3918 15.0 Z " stroke="#191919" stroke-width="0.35 px" style="stroke-width:0.35;stroke-miterlimit:4;stroke-dasharray:none;fill:#cccccc;fill-rule: evenodd "/>
<path id="Part__Feature_f0010"  d="M -197.0 9.5 A 9.5 9.5 0 0 0 -187.5 -3.29637953227e-14 L -188.0 -3.29637953227e-14 A 9.0 9.0 0 0 1 -197.0 9.0 L -197.0 9.5 Z " stroke="#191919" stroke-width="0.35 px" style="stroke-width:0.35;stroke-miterlimit:4;stroke-dasharray:none;fill:#cccccc;fill-rule: evenodd "/>
<path id="Part__Feature_f0011"  d="M 203.0 9.5 A 9.5 9.5 0 0 0 212.5 4.80662299296e-14 L 212.0 4.80662299296e-14 A 9.0 9.0 0 0 1 203.0 9.0 L 203.0 9.5 Z " stroke="#191919" stroke-width="0.35 px" style="stroke-width:0.35;stroke-miterlimit:4;stroke-dasharray:none;fill:#cccccc;fill-rule: evenodd "/>
<path id="Part__Feature_f0012"  d="M 203.0 9.0 A 9.0 9.0 0 0 0 212.0 5.02705941681e-14 L 212.0 4.80662299296e-14 A 9.0 9.0 0 0 1 203.0 9.0 L 203.0 9.0 Z " stroke="#191919" stroke-width="0.35 px" style="stroke-width:0.35;stroke-miterlimit:4;stroke-dasharray:none;fill:#cccccc;fill-rule: evenodd "/>
<path id="Part__Feature_f0013"  d="M -197.0 9.0 A 9.0 9.0 0 0 0 -188.0 -3.07594310842e-14 L -188.0 -3.29637953227e-14 A 9.0 9.0 0 0 1 -197.0 9.0 L -197.0 9.0 Z " stroke="#191919" stroke-width="0.35 px" style="stroke-width:0.35;stroke-miterlimit:4;stroke-dasharray:none;fill:#cccccc;fill-rule: evenodd "/>
<path id="Part__Feature_f0014"  d="M 217.0 -19.55 L 217.0 19.55 L 217.0 19.55 L 217.0 -19.55 L 217.0 -19.55 Z " stroke="#191919" stroke-width="0.35 px" style="stroke-width:0.35;stroke-miterlimit:4;stroke-dasharray:none;fill:#cccccc;fill-rule: evenodd "/>
<path id="Part__Feature_f0015"  d="M -217.0 19.55 L -217.0 -19.55 L -217.0 -19.55 L -217.0 19.55 L -217.0 19.55 Z " stroke="#191919" stroke-width="0.35 px" style="stroke-width:0.35;stroke-miterlimit:4;stroke-dasharray:none;fill:#cccccc;fill-rule: evenodd "/>
<path id="Part__Feature_f0016"  d="M -57.4205 3.25 A 1.0795 1.0795 0 0 1 -59.5795 3.25 A 1.0795 1.0795 0 0 1 -57.4205 3.25 Z M 59.5795 -3.25 A 1.0795 1.0795 0 0 1 57.4205 -3.25 A 1.0795 1.0795 0 0 1 59.5795 -3.25 Z M 212.1082 15.0 A 2.1082 2.1082 0 0 1 207.8918 15.0 A 2.1082 2.1082 0 0 1 212.1082 15.0 Z M 212.1082 -15.0 A 2.1082 2.1082 0 0 1 207.8918 -15.0 A 2.1082 2.1082 0 0 1 212.1082 -15.0 Z M 199.1082 -15.0 A 2.1082 2.1082 0 0 1 194.8918 -15.0 A 2.1082 2.1082 0 0 1 199.1082 -15.0 Z M 199.1082 15.0 A 2.1082 2.1082 0 0 1 194.8918 15.0 A 2.1082 2.1082 0 0 1 199.1082 15.0 Z M -190.3918 15.0 A 2.1082 2.1082 0 0 1 -194.6082 15.0 A 2.1082 2.1082 0 0 1 -190.3918 15.0 Z M -190.3918 -15.0 A 2.1082 2.1082 0 0 1 -194.6082 -15.0 A 2.1082 2.1082 0 0 1 -190.3918 -15.0 Z M -203.3918 -15.0 A 2.1082 2.1082 0 0 1 -207.6082 -15.0 A 2.1082 2.1082 0 0 1 -203.3918 -15.0 Z M -203.3918 15.0 A 2.1082 2.1082 0 0 1 -207.6082 15.0 A 2.1082 2.1082 0 0 1 -203.3918 15.0 Z M -2.65 17.4678759595 L -85.1 17.4678759595 L -85.1 13.0 L -2.65 13.0 L -2.65 17.4678759595 Z M -90.4 17.4678759595 L -168.382124041 17.4678759595 L -172.85 13.0 L -90.4 13.0 L -90.4 17.4678759595 Z M -90.4 -17.4678759595 L -90.4 -13.0 L -172.85 -13.0 L -172.85 -17.4678759595 L -90.4 -17.4678759595 Z M 172.85 10.25 L 61.15 10.25 L 61.15 -10.25 L 172.85 -10.25 L 172.85 10.25 Z M -2.65 -17.4678759595 L -2.65 -13.0 L -85.1 -13.0 L -85.1 -17.4678759595 L -2.65 -17.4678759595 Z M 55.85 -10.25 L 55.85 10.25 L -55.85 10.25 L -55.85 -10.25 L 55.85 -10.25 Z M 2.65 17.4678759595 L 2.65 13.0 L 85.1 13.0 L 85.1 17.4678759595 L 2.65 17.4678759595 Z M 90.4 17.4678759595 L 90.4 13.0 L 172.85 13.0 L 168.382124041 17.4678759595 L 90.4 17.4678759595 Z M 90.4 -17.4678759595 L 172.85 -17.4678759595 L 172.85 -13.0 L 90.4 -13.0 L 90.4 -17.4678759595 Z M 2.65 -17.4678759595 L 85.1 -17.4678759595 L 85.1 -13.0 L 2.65 -13.0 L 2.65 -17.4678759595 Z M -61.15 -10.25 L -61.15 10.25 L -172.85 10.25 L -172.85 -10.25 L -61.15 -10.25 Z M 197.0 -9.5 A 9.5 9.5 0 0 0 197.0 9.5 L 203.0 9.5 A 9.5 9.5 0 0 0 212.5 4.80662299296e-14 A 9.5 9.5 0 0 0 203.0 -9.5 L 197.0 -9.5 Z M -203.0 -9.5 A 9.5 9.5 0 0 0 -203.0 9.5 L -197.0 9.5 A 9.5 9.5 0 0 0 -187.5 -3.29637953227e-14 A 9.5 9.5 0 0 0 -197.0 -9.5 L -203.0 -9.5 Z M -217.0 -19.55 L 217.0 -19.55 L 217.0 19.55 L -217.0 19.55 L -217.0 -19.55 Z " stroke="#191919" stroke-width="0.35 px" style="stroke-width:0.35;stroke-miterlimit:4;stroke-dasharray:none;fill:#cccccc;fill-rule: evenodd "/>
<path id="Part__Feature_f0017"  d="M -57.4205 3.25 A 1.0795 1.0795 0 0 1 -59.5795 3.25 A 1.0795 1.0795 0 0 1 -57.4205 3.25 Z M 59.5795 -3.25 A 1.0795 1.0795 0 0 1 57.4205 -3.25 A 1.0795 1.0795 0 0 1 59.5795 -3.25 Z M 212.1082 15.0 A 2.1082 2.1082 0 0 1 207.8918 15.0 A 2.1082 2.1082 0 0 1 212.1082 15.0 Z M 212.1082 -15.0 A 2.1082 2.1082 0 0 1 207.8918 -15.0 A 2.1082 2.1082 0 0 1 212.1082 -15.0 Z M 199.1082 -15.0 A 2.1082 2.1082 0 0 1 194.8918 -15.0 A 2.1082 2.1082 0 0 1 199.1082 -15.0 Z M 199.1082 15.0 A 2.1082 2.1082 0 0 1 194.8918 15.0 A 2.1082 2.1082 0 0 1 199.1082 15.0 Z M -190.3918 15.0 A 2.1082 2.1082 0 0 1 -194.6082 15.0 A 2.1082 2.1082 0 0 1 -190.3918 15.0 Z M -190.3918 -15.0 A 2.1082 2.1082 0 0 1 -194.6082 -15.0 A 2.1082 2.1082 0 0 1 -190.3918 -15.0 Z M -203.3918 -15.0 A 2.1082 2.1082 0 0 1 -207.6082 -15.0 A 2.1082 2.1082 0 0 1 -203.3918 -15.0 Z M -203.3918 15.0 A 2.1082 2.1082 0 0 1 -207.6082 15.0 A 2.1082 2.1082 0 0 1 -203.3918 15.0 Z M -85.1 17.4678759595 L -85.1 13.0 L -2.65 13.0 L -2.65 17.4678759595 L -85.1 17.4678759595 Z M -168.382124041 17.4678759595 L -172.85 13.0 L -90.4 13.0 L -90.4 17.4678759595 L -168.382124041 17.4678759595 Z M -90.4 -13.0 L -172.85 -13.0 L -172.85 -17.4678759595 L -90.4 -17.4678759595 L -90.4 -13.0 Z M 61.15 10.25 L 61.15 -10.25 L 172.85 -10.25 L 172.85 10.25 L 61.15 10.25 Z M -2.65 -13.0 L -85.1 -13.0 L -85.1 -17.4678759595 L -2.65 -17.4678759595 L -2.65 -13.0 Z M 55.85 10.25 L -55.85 10.25 L -55.85 -10.25 L 55.85 -10.25 L 55.85 10.25 Z M 2.65 13.0 L 85.1 13.0 L 85.1 17.4678759595 L 2.65 17.4678759595 L 2.65 13.0 Z M 90.4 13.0 L 172.85 13.0 L 168.382124041 17.4678759595 L 90.4 17.4678759595 L 90.4 13.0 Z M 172.85 -17.4678759595 L 172.85 -13.0 L 90.4 -13.0 L 90.4 -17.4678759595 L 172.85 -17.4678759595 Z M 85.1 -17.4678759595 L 85.1 -13.0 L 2.65 -13.0 L 2.65 -17.4678759595 L 85.1 -17.4678759595 Z M -61.15 10.25 L -172.85 10.25 L -172.85 -10.25 L -61.15 -10.25 L -61.15 10.25 Z M 197.0 -9.0 L 203.0 -9.0 A 9.0 9.0 0 0 1 212.0 4.80662299296e-14 A 9.0 9.0 0 0 1 203.0 9.0 L 197.0 9.0 A 9.0 9.0 0 0 1 197.0 -9.0 Z M -197.0 9.0 L -203.0 9.0 A 9.0 9.0 0 0 1 -203.0 -9.0 L -197.0 -9.0 A 9.0 9.0 0 0 1 -188.0 -3.29637953227e-14 A 9.0 9.0 0 0 1 -197.0 9.0 Z M 217.0 19.55 L -217.0 19.55 L -217.0 -19.55 L 217.0 -19.55 L 217.0 19.55 Z " stroke="#191919" stroke-width="0.35 px" style="stroke-width:0.35;stroke-miterlimit:4;stroke-dasharray:none;fill:#cccccc;fill-rule: evenodd "/>
<path id="Part__Feature_f0018"  d="M -203.0 9.0 L -203.0 9.0 A 9.0 9.0 0 0 1 -203.0 -9.0 L -203.0 -9.0 A 9.0 9.0 0 0 0 -203.0 9.0 Z " stroke="#191919" stroke-width="0.35 px" style="stroke-width:0.35;stroke-miterlimit:4;stroke-dasharray:none;fill:#cccccc;fill-rule: evenodd "/>
<path id="Part__Feature_f0019"  d="M -197.0 9.0 L -197.0 9.0 L -203.0 9.0 L -203.0 9.0 L -197.0 9.0 Z " stroke="#191919" stroke-width="0.35 px" style="stroke-width:0.35;stroke-miterlimit:4;stroke-dasharray:none;fill:#cccccc;fill-rule: evenodd "/>
<path id="Part__Feature_f0020"  d="M -197.0 -9.0 L -197.0 -9.0 A 9.0 9.0 0 0 1 -188.0 -3.29637953227e-14 L -188.0 -3.29637953227e-14 A 9.0 9.0 0 0 0 -197.0 -9.0 Z " stroke="#191919" stroke-width="0.35 px" style="stroke-width:0.35;stroke-miterlimit:4;stroke-dasharray:none;fill:#cccccc;fill-rule: evenodd "/>
<path id="Part__Feature_f0021"  d="M -203.0 -9.0 L -203.0 -9.0 L -197.0 -9.0 L -197.0 -9.0 L -203.0 -9.0 Z " stroke="#191919" stroke-width="0.35 px" style="stroke-width:0.35;stroke-miterlimit:4;stroke-dasharray:none;fill:#cccccc;fill-rule: evenodd "/>
<path id="Part__Feature_f0022"  d="M 203.0 -9.0 L 203.0 -9.0 A 9.0 9.0 0 0 1 212.0 4.80662299296e-14 L 212.0 4.80662299296e-14 A 9.0 9.0 0 0 0 203.0 -9.0 Z " stroke="#191919" stroke-width="0.35 px" style="stroke-width:0.35;stroke-miterlimit:4;stroke-dasharray:none;fill:#cccccc;fill-rule: evenodd "/>
<path id="Part__Feature_f0023"  d="M 197.0 -9.0 L 197.0 -9.0 L 203.0 -9.0 L 203.0 -9.0 L 197.0 -9.0 Z " stroke="#191919" stroke-width="0.35 px" style="stroke-width:0.35;stroke-miterlimit:4;stroke-dasharray:none;fill:#cccccc;fill-rule: evenodd "/>
<path id="Part__Feature_f0024"  d="M 197.0 9.0 L 197.0 9.0 A 9.0 9.0 0 0 1 197.0 -9.0 L 197.0 -9.0 A 9.0 9.0 0 0 0 197.0 9.0 Z " stroke="#191919" stroke-width="0.35 px" style="stroke-width:0.35;stroke-miterlimit:4;stroke-dasharray:none;fill:#cccccc;fill-rule: evenodd "/>
<path id="Part__Feature_f0025"  d="M 203.0 9.0 L 203.0 9.0 L 197.0 9.0 L 197.0 9.0 L 203.0 9.0 Z " stroke="#191919" stroke-width="0.35 px" style="stroke-width:0.35;stroke-miterlimit:4;stroke-dasharray:none;fill:#cccccc;fill-rule: evenodd "/>
<path id="Part__Feature_f0026"  d="M 203.0 -9.0 L 203.0 -9.5 L 197.0 -9.5 L 197.0 -9.0 L 203.0 -9.0 Z " stroke="#191919" stroke-width="0.35 px" style="stroke-width:0.35;stroke-miterlimit:4;stroke-dasharray:none;fill:#cccccc;fill-rule: evenodd "/>
<path id="Part__Feature_f0027"  d="M 203.0 -9.5 L 203.0 -9.0 A 9.0 9.0 0 0 1 212.0 4.80662299296e-14 L 212.5 4.80662299296e-14 A 9.5 9.5 0 0 0 203.0 -9.5 Z " stroke="#191919" stroke-width="0.35 px" style="stroke-width:0.35;stroke-miterlimit:4;stroke-dasharray:none;fill:#cccccc;fill-rule: evenodd "/>
<path id="Part__Feature_f0028"  d="M 197.0 -9.5 L 197.0 -9.0 A 9.0 9.0 0 0 0 197.0 9.0 L 197.0 9.5 A 9.5 9.5 0 0 1 197.0 -9.5 Z " stroke="#191919" stroke-width="0.35 px" style="stroke-width:0.35;stroke-miterlimit:4;stroke-dasharray:none;fill:#cccccc;fill-rule: evenodd "/>
<path id="Part__Feature_f0029"  d="M 203.0 9.0 L 203.0 9.5 L 197.0 9.5 L 197.0 9.0 L 203.0 9.0 Z " stroke="#191919" stroke-width="0.35 px" style="stroke-width:0.35;stroke-miterlimit:4;stroke-dasharray:none;fill:#cccccc;fill-rule: evenodd "/>
<path id="Part__Feature_f0030"  d="M -197.0 -9.0 L -197.0 -9.5 L -203.0 -9.5 L -203.0 -9.0 L -197.0 -9.0 Z " stroke="#191919" stroke-width="0.35 px" style="stroke-width:0.35;stroke-miterlimit:4;stroke-dasharray:none;fill:#cccccc;fill-rule: evenodd "/>
<path id="Part__Feature_f0031"  d="M -197.0 -9.5 L -197.0 -9.0 A 9.0 9.0 0 0 1 -188.0 -3.29637953227e-14 L -187.5 -3.29637953227e-14 A 9.5 9.5 0 0 0 -197.0 -9.5 Z " stroke="#191919" stroke-width="0.35 px" style="stroke-width:0.35;stroke-miterlimit:4;stroke-dasharray:none;fill:#cccccc;fill-rule: evenodd "/>
<path id="Part__Feature_f0032"  d="M -203.0 -9.5 L -203.0 -9.0 A 9.0 9.0 0 0 0 -203.0 9.0 L -203.0 9.5 A 9.5 9.5 0 0 1 -203.0 -9.5 Z " stroke="#191919" stroke-width="0.35 px" style="stroke-width:0.35;stroke-miterlimit:4;stroke-dasharray:none;fill:#cccccc;fill-rule: evenodd "/>
<path id="Part__Feature_f0033"  d="M -197.0 9.0 L -197.0 9.5 L -203.0 9.5 L -203.0 9.0 L -197.0 9.0 Z " stroke="#191919" stroke-width="0.35 px" style="stroke-width:0.35;stroke-miterlimit:4;stroke-dasharray:none;fill:#cccccc;fill-rule: evenodd "/>
<path id="Part__Feature_f0034"  d="M -172.85 10.25 L -172.85 -10.25 L -172.85 -10.25 L -172.85 10.25 L -172.85 10.25 Z " stroke="#191919" stroke-width="0.35 px" style="stroke-width:0.35;stroke-miterlimit:4;stroke-dasharray:none;fill:#cccccc;fill-rule: evenodd "/>
<path id="Part__Feature_f0035"  d="M -61.15 10.25 L -172.85 10.25 L -172.85 10.25 L -61.15 10.25 L -61.15 10.25 Z " stroke="#191919" stroke-width="0.35 px" style="stroke-width:0.35;stroke-miterlimit:4;stroke-dasharray:none;fill:#cccccc;fill-rule: evenodd "/>
<path id="Part__Feature_f0036"  d="M -61.15 -10.25 L -61.15 10.25 L -61.15 10.25 L -61.15 -10.25 L -61.15 -10.25 Z " stroke="#191919" stroke-width="0.35 px" style="stroke-width:0.35;stroke-miterlimit:4;stroke-dasharray:none;fill:#cccccc;fill-rule: evenodd "/>
<path id="Part__Feature_f0037"  d="M -172.85 -10.25 L -61.15 -10.25 L -61.15 -10.25 L -172.85 -10.25 L -172.85 -10.25 Z " stroke="#191919" stroke-width="0.35 px" style="stroke-width:0.35;stroke-miterlimit:4;stroke-dasharray:none;fill:#cccccc;fill-rule: evenodd "/>
<path id="Part__Feature_f0038"  d="M 85.1 -13.0 L 2.65 -13.0 L 2.65 -13.0 L 85.1 -13.0 L 85.1 -13.0 Z " stroke="#191919" stroke-width="0.35 px" style="stroke-width:0.35;stroke-miterlimit:4;stroke-dasharray:none;fill:#cccccc;fill-rule: evenodd "/>
<path id="Part__Feature_f0039"  d="M 85.1 -17.4678759595 L 85.1 -13.0 L 85.1 -13.0 L 85.1 -17.4678759595 L 85.1 -17.4678759595 Z " stroke="#191919" stroke-width="0.35 px" style="stroke-width:0.35;stroke-miterlimit:4;stroke-dasharray:none;fill:#cccccc;fill-rule: evenodd "/>
<path id="Part__Feature_f0040"  d="M 2.65 -17.4678759595 L 85.1 -17.4678759595 L 85.1 -17.4678759595 L 2.65 -17.4678759595 L 2.65 -17.4678759595 Z " stroke="#191919" stroke-width="0.35 px" style="stroke-width:0.35;stroke-miterlimit:4;stroke-dasharray:none;fill:#cccccc;fill-rule: evenodd "/>
<path id="Part__Feature_f0041"  d="M 2.65 -13.0 L 2.65 -17.4678759595 L 2.65 -17.4678759595 L 2.65 -13.0 L 2.65 -13.0 Z " stroke="#191919" stroke-width="0.35 px" style="stroke-width:0.35;stroke-miterlimit:4;stroke-dasharray:none;fill:#cccccc;fill-rule: evenodd "/>
<path id="Part__Feature_f0042"  d="M 172.85 -13.0 L 90.4 -13.0 L 90.4 -13.0 L 172.85 -13.0 L 172.85 -13.0 Z " stroke="#191919" stroke-width="0.35 px" style="stroke-width:0.35;stroke-miterlimit:4;stroke-dasharray:none;fill:#cccccc;fill-rule: evenodd "/>
<path id="Part__Feature_f0043"  d="M 172.85 -17.4678759595 L 172.85 -13.0 L 172.85 -13.0 L 172.85 -17.4678759595 L 172.85 -17.4678759595 Z " stroke="#191919" stroke-width="0.35 px" style="stroke-width:0.35;stroke-miterlimit:4;stroke-dasharray:none;fill:#cccccc;fill-rule: evenodd "/>
<path id="Part__Feature_f0044"  d="M 90.4 -17.4678759595 L 172.85 -17.4678759595 L 172.85 -17.4678759595 L 90.4 -17.4678759595 L 90.4 -17.4678759595 Z " stroke="#191919" stroke-width="0.35 px" style="stroke-width:0.35;stroke-miterlimit:4;stroke-dasharray:none;fill:#cccccc;fill-rule: evenodd "/>
<path id="Part__Feature_f0045"  d="M 90.4 -13.0 L 90.4 -17.4678759595 L 90.4 -17.4678759595 L 90.4 -13.0 L 90.4 -13.0 Z " stroke="#191919" stroke-width="0.35 px" style="stroke-width:0.35;stroke-miterlimit:4;stroke-dasharray:none;fill:#cccccc;fill-rule: evenodd "/>
<path id="Part__Feature_f0046"  d="M 172.85 13.0 L 168.382124041 17.4678759595 L 168.382124041 17.4678759595 L 172.85 13.0 L 172.85 13.0 Z " stroke="#191919" stroke-width="0.35 px" style="stroke-width:0.35;stroke-miterlimit:4;stroke-dasharray:none;fill:#cccccc;fill-rule: evenodd "/>
<path id="Part__Feature_f0047"  d="M 90.4 13.0 L 172.85 13.0 L 172.85 13.0 L 90.4 13.0 L 90.4 13.0 Z " stroke="#191919" stroke-width="0.35 px" style="stroke-width:0.35;stroke-miterlimit:4;stroke-dasharray:none;fill:#cccccc;fill-rule: evenodd "/>
<path id="Part__Feature_f0048"  d="M 90.4 17.4678759595 L 90.4 13.0 L 90.4 13.0 L 90.4 17.4678759595 L 90.4 17.4678759595 Z " stroke="#191919" stroke-width="0.35 px" style="stroke-width:0.35;stroke-miterlimit:4;stroke-dasharray:none;fill:#cccccc;fill-rule: evenodd "/>
<path id="Part__Feature_f0049"  d="M 168.382124041 17.4678759595 L 90.4 17.4678759595 L 90.4 17.4678759595 L 168.382124041 17.4678759595 L 168.382124041 17.4678759595 Z " stroke="#191919" stroke-width="0.35 px" style="stroke-width:0.35;stroke-miterlimit:4;stroke-dasharray:none;fill:#cccccc;fill-rule: evenodd "/>
<path id="Part__Feature_f0050"  d="M 85.1 13.0 L 85.1 17.4678759595 L 85.1 17.4678759595 L 85.1 13.0 L 85.1 13.0 Z " stroke="#191919" stroke-width="0.35 px" style="stroke-width:0.35;stroke-miterlimit:4;stroke-dasharray:none;fill:#cccccc;fill-rule: evenodd "/>
<path id="Part__Feature_f0051"  d="M 2.65 13.0 L 85.1 13.0 L 85.1 13.0 L 2.65 13.0 L 2.65 13.0 Z " stroke="#191919" stroke-width="0.35 px" style="stroke-width:0.35;stroke-miterlimit:4;stroke-dasharray:none;fill:#cccccc;fill-rule: evenodd "/>
<path id="Part__Feature_f0052"  d="M 2.65 17.4678759595 L 2.65 13.0 L 2.65 13.0 L 2.65 17.4678759595 L 2.65 17.4678759595 Z " stroke="#191919" stroke-width="0.35 px" style="stroke-width:0.35;stroke-miterlimit:4;stroke-dasharray:none;fill:#cccccc;fill-rule: evenodd "/>
<path id="Part__Feature_f0053"  d="M 85.1 17.4678759595 L 2.65 17.4678759595 L 2.65 17.4678759595 L 85.1 17.4678759595 L 85.1 17.4678759595 Z " stroke="#191919" stroke-width="0.35 px" style="stroke-width:0.35;stroke-miterlimit:4;stroke-dasharray:none;fill:#cccccc;fill-rule: evenodd "/>
<path id="Part__Feature_f0054"  d="M -55.85 10.25 L -55.85 -10.25 L -55.85 -10.25 L -55.85 10.25 L -55.85 10.25 Z " stroke="#191919" stroke-width="0.35 px" style="stroke-width:0.35;stroke-miterlimit:4;stroke-dasharray:none;fill:#cccccc;fill-rule: evenodd "/>
<path id="Part__Feature_f0055"  d="M 55.85 10.25 L -55.85 10.25 L -55.85 10.25 L 55.85 10.25 L 55.85 10.25 Z " stroke="#191919" stroke-width="0.35 px" style="stroke-width:0.35;stroke-miterlimit:4;stroke-dasharray:none;fill:#cccccc;fill-rule: evenodd "/>
<path id="Part__Feature_f0056"  d="M 55.85 -10.25 L 55.85 10.25 L 55.85 10.25 L 55.85 -10.25 L 55.85 -10.25 Z " stroke="#191919" stroke-width="0.35 px" style="stroke-width:0.35;stroke-miterlimit:4;stroke-dasharray:none;fill:#cccccc;fill-rule: evenodd "/>
<path id="Part__Feature_f0057"  d="M -55.85 -10.25 L 55.85 -10.25 L 55.85 -10.25 L -55.85 -10.25 L -55.85 -10.25 Z " stroke="#191919" stroke-width="0.35 px" style="stroke-width:0.35;stroke-miterlimit:4;stroke-dasharray:none;fill:#cccccc;fill-rule: evenodd "/>
<path id="Part__Feature_f0058"  d="M -85.1 -13.0 L -85.1 -17.4678759595 L -85.1 -17.4678759595 L -85.1 -13.0 L -85.1 -13.0 Z " stroke="#191919" stroke-width="0.35 px" style="stroke-width:0.35;stroke-miterlimit:4;stroke-dasharray:none;fill:#cccccc;fill-rule: evenodd "/>
<path id="Part__Feature_f0059"  d="M -2.65 -13.0 L -85.1 -13.0 L -85.1 -13.0 L -2.65 -13.0 L -2.65 -13.0 Z " stroke="#191919" stroke-width="0.35 px" style="stroke-width:0.35;stroke-miterlimit:4;stroke-dasharray:none;fill:#cccccc;fill-rule: evenodd "/>
<path id="Part__Feature_f0060"  d="M -2.65 -17.4678759595 L -2.65 -13.0 L -2.65 -13.0 L -2.65 -17.4678759595 L -2.65 -17.4678759595 Z " stroke="#191919" stroke-width="0.35 px" style="stroke-width:0.35;stroke-miterlimit:4;stroke-dasharray:none;fill:#cccccc;fill-rule: evenodd "/>
<path id="Part__Feature_f0061"  d="M -85.1 -17.4678759595 L -2.65 -17.4678759595 L -2.65 -17.4678759595 L -85.1 -17.4678759595 L -85.1 -17.4678759595 Z " stroke="#191919" stroke-width="0.35 px" style="stroke-width:0.35;stroke-miterlimit:4;stroke-dasharray:none;fill:#cccccc;fill-rule: evenodd "/>
<path id="Part__Feature_f0062"  d="M 61.15 -10.25 L 172.85 -10.25 L 172.85 -10.25 L 61.15 -10.25 L 61.15 -10.25 Z " stroke="#191919" stroke-width="0.35 px" style="stroke-width:0.35;stroke-miterlimit:4;stroke-dasharray:none;fill:#cccccc;fill-rule: evenodd "/>
<path id="Part__Feature_f0063"  d="M 61.15 10.25 L 61.15 -10.25 L 61.15 -10.25 L 61.15 10.25 L 61.15 10.25 Z " stroke="#191919" stroke-width="0.35 px" style="stroke-width:0.35;stroke-miterlimit:4;stroke-dasharray:none;fill:#cccccc;fill-rule: evenodd "/>
<path id="Part__Feature_f0064"  d="M 172.85 10.25 L 61.15 10.25 L 61.15 10.25 L 172.85 10.25 L 172.85 10.25 Z " stroke="#191919" stroke-width="0.35 px" style="stroke-width:0.35;stroke-miterlimit:4;stroke-dasharray:none;fill:#cccccc;fill-rule: evenodd "/>
<path id="Part__Feature_f0065"  d="M 172.85 -10.25 L 172.85 10.25 L 172.85 10.25 L 172.85 -10.25 L 172.85 -10.25 Z " stroke="#191919" stroke-width="0.35 px" style="stroke-width:0.35;stroke-miterlimit:4;stroke-dasharray:none;fill:#cccccc;fill-rule: evenodd "/>
<path id="Part__Feature_f0066"  d="M -172.85 -13.0 L -172.85 -17.4678759595 L -172.85 -17.4678759595 L -172.85 -13.0 L -172.85 -13.0 Z " stroke="#191919" stroke-width="0.35 px" style="stroke-width:0.35;stroke-miterlimit:4;stroke-dasharray:none;fill:#cccccc;fill-rule: evenodd "/>
<path id="Part__Feature_f0067"  d="M -90.4 -13.0 L -172.85 -13.0 L -172.85 -13.0 L -90.4 -13.0 L -90.4 -13.0 Z " stroke="#191919" stroke-width="0.35 px" style="stroke-width:0.35;stroke-miterlimit:4;stroke-dasharray:none;fill:#cccccc;fill-rule: evenodd "/>
<path id="Part__Feature_f0068"  d="M -90.4 -17.4678759595 L -90.4 -13.0 L -90.4 -13.0 L -90.4 -17.4678759595 L -90.4 -17.4678759595 Z " stroke="#191919" stroke-width="0.35 px" style="stroke-width:0.35;stroke-miterlimit:4;stroke-dasharray:none;fill:#cccccc;fill-rule: evenodd "/>
<path id="Part__Feature_f0069"  d="M -172.85 -17.4678759595 L -90.4 -17.4678759595 L -90.4 -17.4678759595 L -172.85 -17.4678759595 L -172.85 -17.4678759595 Z " stroke="#191919" stroke-width="0.35 px" style="stroke-width:0.35;stroke-miterlimit:4;stroke-dasharray:none;fill:#cccccc;fill-rule: evenodd "/>
<path id="Part__Feature_f0070"  d="M -172.85 13.0 L -90.4 13.0 L -90.4 13.0 L -172.85 13.0 L -172.85 13.0 Z " stroke="#191919" stroke-width="0.35 px" style="stroke-width:0.35;stroke-miterlimit:4;stroke-dasharray:none;fill:#cccccc;fill-rule: evenodd "/>
<path id="Part__Feature_f0071"  d="M -168.382124041 17.4678759595 L -172.85 13.0 L -172.85 13.0 L -168.382124041 17.4678759595 L -168.382124041 17.4678759595 Z " stroke="#191919" stroke-width="0.35 px" style="stroke-width:0.35;stroke-miterlimit:4;stroke-dasharray:none;fill:#cccccc;fill-rule: evenodd "/>
<path id="Part__Feature_f0072"  d="M -90.4 17.4678759595 L -168.382124041 17.4678759595 L -168.382124041 17.4678759595 L -90.4 17.4678759595 L -90.4 17.4678759595 Z " stroke="#191919" stroke-width="0.35 px" style="stroke-width:0.35;stroke-miterlimit:4;stroke-dasharray:none;fill:#cccccc;fill-rule: evenodd "/>
<path id="Part__Feature_f0073"  d="M -90.4 13.0 L -90.4 17.4678759595 L -90.4 17.4678759595 L -90.4 13.0 L -90.4 13.0 Z " stroke="#191919" stroke-width="0.35 px" style="stroke-width:0.35;stroke-miterlimit:4;stroke-dasharray:none;fill:#cccccc;fill-rule: evenodd "/>
<path id="Part__Feature_f0074"  d="M -85.1 13.0 L -2.65 13.0 L -2.65 13.0 L -85.1 13.0 L -85.1 13.0 Z " stroke="#191919" stroke-width="0.35 px" style="stroke-width:0.35;stroke-miterlimit:4;stroke-dasharray:none;fill:#cccccc;fill-rule: evenodd "/>
<path id="Part__Feature_f0075"  d="M -85.1 17.4678759595 L -85.1 13.0 L -85.1 13.0 L -85.1 17.4678759595 L -85.1 17.4678759595 Z " stroke="#191919" stroke-width="0.35 px" style="stroke-width:0.35;stroke-miterlimit:4;stroke-dasharray:none;fill:#cccccc;fill-rule: evenodd "/>
<path id="Part__Feature_f0076"  d="M -2.65 17.4678759595 L -85.1 17.4678759595 L -85.1 17.4678759595 L -2.65 17.4678759595 L -2.65 17.4678759595 Z " stroke="#191919" stroke-width="0.35 px" style="stroke-width:0.35;stroke-miterlimit:4;stroke-dasharray:none;fill:#cccccc;fill-rule: evenodd "/>
<path id="Part__Feature_f0077"  d="M -2.65 13.0 L -2.65 17.4678759595 L -2.65 17.4678759595 L -2.65 13.0 L -2.65 13.0 Z " stroke="#191919" stroke-width="0.35 px" style="stroke-width:0.35;stroke-miterlimit:4;stroke-dasharray:none;fill:#cccccc;fill-rule: evenodd "/>
<path id="Part__Feature_f0078"  d="M -217.0 19.55 L -217.0 19.55 A 0.5 0.5 0 0 1 -217.0 20.05 L -217.0 21.25 A 1.7 1.7 0 0 1 -217.0 19.55 Z " stroke="#191919" stroke-width="0.35 px" style="stroke-width:0.35;stroke-miterlimit:4;stroke-dasharray:none;fill:#cccccc;fill-rule: evenodd "/>
<path id="Part__Feature_f0079"  d="M 217.0 19.55 A 0.5 0.5 0 0 1 217.0 20.05 L 217.0 21.25 A 1.7 1.7 0 0 1 217.0 19.55 L 217.0 19.55 Z " stroke="#191919" stroke-width="0.35 px" style="stroke-width:0.35;stroke-miterlimit:4;stroke-dasharray:none;fill:#cccccc;fill-rule: evenodd "/>
<path id="Part__Feature_f0080"  d="M -217.0 21.25 L 217.0 21.25 A 1.7 1.7 0 0 1 217.0 19.55 L -217.0 19.55 A 1.7 1.7 0 0 1 -217.0 21.25 Z " stroke="#191919" stroke-width="0.35 px" style="stroke-width:0.35;stroke-miterlimit:4;stroke-dasharray:none;fill:#cccccc;fill-rule: evenodd "/>
<path id="Part__Feature_f0081"  d="M 217.0 19.55 L -217.0 19.55 A 0.5 0.5 0 0 1 -217.0 20.05 L 217.0 20.05 A 0.5 0.5 0 0 1 217.0 19.55 Z " stroke="#191919" stroke-width="0.35 px" style="stroke-width:0.35;stroke-miterlimit:4;stroke-dasharray:none;fill:#cccccc;fill-rule: evenodd "/>
<path id="Part__Feature_f0082"  d="M 216.0 21.25 L -216.0 21.25 L -216.0 20.05 L 216.0 20.05 L 216.0 21.25 Z " stroke="#191919" stroke-width="0.35 px" style="stroke-width:0.35;stroke-miterlimit:4;stroke-dasharray:none;fill:#cccccc;fill-rule: evenodd "/>
<path id="Part__Feature_f0083"  d="M -155.438186061 21.25 L -159.90606202 21.25 L -159.90606202 20.05 L -155.438186061 20.05 L -155.438186061 21.25 Z " stroke="#191919" stroke-width="0.35 px" style="stroke-width:0.35;stroke-miterlimit:4;stroke-dasharray:none;fill:#cccccc;fill-rule: evenodd "/>
<path id="Part__Feature_f0084"  d="M -159.90606202 21.25 L -90.4 21.25 L -90.4 20.05 L -159.90606202 20.05 L -159.90606202 21.25 Z " stroke="#191919" stroke-width="0.35 px" style="stroke-width:0.35;stroke-miterlimit:4;stroke-dasharray:none;fill:#cccccc;fill-rule: evenodd "/>
<path id="Part__Feature_f0085"  d="M -90.4 21.25 L -90.4 21.25 L -90.4 20.05 L -90.4 20.05 L -90.4 21.25 Z " stroke="#191919" stroke-width="0.35 px" style="stroke-width:0.35;stroke-miterlimit:4;stroke-dasharray:none;fill:#cccccc;fill-rule: evenodd "/>
<path id="Part__Feature_f0086"  d="M -90.4 21.25 L -155.438186061 21.25 L -155.438186061 20.05 L -90.4 20.05 L -90.4 21.25 Z " stroke="#191919" stroke-width="0.35 px" style="stroke-width:0.35;stroke-miterlimit:4;stroke-dasharray:none;fill:#cccccc;fill-rule: evenodd "/>
<path id="Part__Feature_f0087"  d="M 159.90606202 21.25 L 155.438186061 21.25 L 155.438186061 20.05 L 159.90606202 20.05 L 159.90606202 21.25 Z " stroke="#191919" stroke-width="0.35 px" style="stroke-width:0.35;stroke-miterlimit:4;stroke-dasharray:none;fill:#cccccc;fill-rule: evenodd "/>
<path id="Part__Feature_f0088"  d="M 155.438186061 21.25 L 90.4 21.25 L 90.4 20.05 L 155.438186061 20.05 L 155.438186061 21.25 Z " stroke="#191919" stroke-width="0.35 px" style="stroke-width:0.35;stroke-miterlimit:4;stroke-dasharray:none;fill:#cccccc;fill-rule: evenodd "/>
<path id="Part__Feature_f0089"  d="M 90.4 21.25 L 90.4 21.25 L 90.4 20.05 L 90.4 20.05 L 90.4 21.25 Z " stroke="#191919" stroke-width="0.35 px" style="stroke-width:0.35;stroke-miterlimit:4;stroke-dasharray:none;fill:#cccccc;fill-rule: evenodd "/>
<path id="Part__Feature_f0090"  d="M 90.4 21.25 L 159.90606202 21.25 L 159.90606202 20.05 L 90.4 20.05 L 90.4 21.25 Z " stroke="#191919" stroke-width="0.35 px" style="stroke-width:0.35;stroke-miterlimit:4;stroke-dasharray:none;fill:#cccccc;fill-rule: evenodd "/>
<path id="Part__Feature_f0091"  d="M 85.1 21.25 L 2.65 21.25 L 2.65 20.05 L 85.1 20.05 L 85.1 21.25 Z " stroke="#191919" stroke-width="0.35 px" style="stroke-width:0.35;stroke-miterlimit:4;stroke-dasharray:none;fill:#cccccc;fill-rule: evenodd "/>
<path id="Part__Feature_f0092"  d="M 2.65 21.25 L 2.65 21.25 L 2.65 20.05 L 2.65 20.05 L 2.65 21.25 Z " stroke="#191919" stroke-width="0.35 px" style="stroke-width:0.35;stroke-miterlimit:4;stroke-dasharray:none;fill:#cccccc;fill-rule: evenodd "/>
<path id="Part__Feature_f0093"  d="M 2.65 21.25 L 85.1 21.25 L 85.1 20.05 L 2.65 20.05 L 2.65 21.25 Z " stroke="#191919" stroke-width="0.35 px" style="stroke-width:0.35;stroke-miterlimit:4;stroke-dasharray:none;fill:#cccccc;fill-rule: evenodd "/>
<path id="Part__Feature_f0094"  d="M 85.1 21.25 L 85.1 21.25 L 85.1 20.05 L 85.1 20.05 L 85.1 21.25 Z " stroke="#191919" stroke-width="0.35 px" style="stroke-width:0.35;stroke-miterlimit:4;stroke-dasharray:none;fill:#cccccc;fill-rule: evenodd "/>
<path id="Part__Feature_f0095"  d="M -2.65 21.25 L -2.65 21.25 L -2.65 20.05 L -2.65 20.05 L -2.65 21.25 Z " stroke="#191919" stroke-width="0.35 px" style="stroke-width:0.35;stroke-miterlimit:4;stroke-dasharray:none;fill:#cccccc;fill-rule: evenodd "/>
<path id="Part__Feature_f0096"  d="M -2.65 21.25 L -85.1 21.25 L -85.1 20.05 L -2.65 20.05 L -2.65 21.25 Z " stroke="#191919" stroke-width="0.35 px" style="stroke-width:0.35;stroke-miterlimit:4;stroke-dasharray:none;fill:#cccccc;fill-rule: evenodd "/>
<path id="Part__Feature_f0097"  d="M -85.1 21.25 L -85.1 21.25 L -85.1 20.05 L -85.1 20.05 L -85.1 21.25 Z " stroke="#191919" stroke-width="0.35 px" style="stroke-width:0.35;stroke-miterlimit:4;stroke-dasharray:none;fill:#cccccc;fill-rule: evenodd "/>
<path id="Part__Feature_f0098"  d="M -85.1 21.25 L -2.65 21.25 L -2.65 20.05 L -85.1 20.05 L -85.1 21.25 Z " stroke="#191919" stroke-width="0.35 px" style="stroke-width:0.35;stroke-miterlimit:4;stroke-dasharray:none;fill:#cccccc;fill-rule: evenodd "/>
<path id="Part__Feature_f0099"  d="M -2.65 21.25 L -85.1 21.25 L -85.1 21.25 L -2.65 21.25 L -2.65 21.25 Z M 2.65 21.25 L 2.65 21.25 L 85.1 21.25 L 85.1 21.25 L 2.65 21.25 Z M 155.438186061 21.25 L 90.4 21.25 L 90.4 21.25 L 159.90606202 21.25 L 155.438186061 21.25 Z M -159.90606202 21.25 L -90.4 21.25 L -90.4 21.25 L -155.438186061 21.25 L -159.90606202 21.25 Z M 217.0 21.25 L 217.0 21.25 L -217.0 21.25 L -217.0 21.25 A 1.0 1.0 0 0 0 -216.0 21.25 L 216.0 21.25 A 1.0 1.0 0 0 0 217.0 21.25 Z " stroke="#191919" stroke-width="0.35 px" style="stroke-width:0.35;stroke-miterlimit:4;stroke-dasharray:none;fill:#cccccc;fill-rule: evenodd "/>
<path id="Part__Feature_f0100"  d="M 217.0 21.25 L 217.0 21.25 L 217.0 20.05 L 217.0 20.05 L 217.0 21.25 Z " stroke="#191919" stroke-width="0.35 px" style="stroke-width:0.35;stroke-miterlimit:4;stroke-dasharray:none;fill:#cccccc;fill-rule: evenodd "/>
<path id="Part__Feature_f0101"  d="M -85.1 20.05 L -85.1 20.05 L -2.65 20.05 L -2.65 20.05 L -85.1 20.05 Z M 2.65 20.05 L 85.1 20.05 L 85.1 20.05 L 2.65 20.05 L 2.65 20.05 Z M 90.4 20.05 L 90.4 20.05 L 159.90606202 20.05 L 155.438186061 20.05 L 90.4 20.05 Z M -90.4 20.05 L -90.4 20.05 L -155.438186061 20.05 L -159.90606202 20.05 L -90.4 20.05 Z M -217.0 20.05 L -217.0 20.05 A 1.0 1.0 0 0 0 -216.0 20.05 L 216.0 20.05 A 1.0 1.0 0 0 0 217.0 20.05 L 217.0 20.05 L -217.0 20.05 Z " stroke="#191919" stroke-width="0.35 px" style="stroke-width:0.35;stroke-miterlimit:4;stroke-dasharray:none;fill:#cccccc;fill-rule: evenodd "/>
<path id="Part__Feature_f0102"  d="M -217.0 21.25 L -217.0 21.25 L -217.0 20.05 L -217.0 20.05 L -217.0 21.25 Z " stroke="#191919" stroke-width="0.35 px" style="stroke-width:0.35;stroke-miterlimit:4;stroke-dasharray:none;fill:#cccccc;fill-rule: evenodd "/>
<path id="Part__Feature_f0103"  d="M 217.0 -19.55 L 217.0 -19.55 A 0.5 0.5 0 0 1 217.0 -20.05 L 217.0 -21.25 A 1.7 1.7 0 0 1 217.0 -19.55 Z " stroke="#191919" stroke-width="0.35 px" style="stroke-width:0.35;stroke-miterlimit:4;stroke-dasharray:none;fill:#cccccc;fill-rule: evenodd "/>
<path id="Part__Feature_f0104"  d="M -217.0 -19.55 A 0.5 0.5 0 0 1 -217.0 -20.05 L -217.0 -21.25 A 1.7 1.7 0 0 1 -217.0 -19.55 L -217.0 -19.55 Z " stroke="#191919" stroke-width="0.35 px" style="stroke-width:0.35;stroke-miterlimit:4;stroke-dasharray:none;fill:#cccccc;fill-rule: evenodd "/>
<path id="Part__Feature_f0105"  d="M 217.0 -21.25 L -217.0 -21.25 A 1.7 1.7 0 0 1 -217.0 -19.55 L 217.0 -19.55 A 1.7 1.7 0 0 1 217.0 -21.25 Z " stroke="#191919" stroke-width="0.35 px" style="stroke-width:0.35;stroke-miterlimit:4;stroke-dasharray:none;fill:#cccccc;fill-rule: evenodd "/>
<path id="Part__Feature_f0106"  d="M -217.0 -19.55 L 217.0 -19.55 A 0.5 0.5 0 0 1 217.0 -20.05 L -217.0 -20.05 A 0.5 0.5 0 0 1 -217.0 -19.55 Z " stroke="#191919" stroke-width="0.35 px" style="stroke-width:0.35;stroke-miterlimit:4;stroke-dasharray:none;fill:#cccccc;fill-rule: evenodd "/>
<path id="Part__Feature_f0107"  d="M -216.0 -21.25 L 216.0 -21.25 L 216.0 -20.05 L -216.0 -20.05 L -216.0 -21.25 Z " stroke="#191919" stroke-width="0.35 px" style="stroke-width:0.35;stroke-miterlimit:4;stroke-dasharray:none;fill:#cccccc;fill-rule: evenodd "/>
<path id="Part__Feature_f0108"  d="M -90.4 -21.25 L -90.4 -21.25 L -90.4 -20.05 L -90.4 -20.05 L -90.4 -21.25 Z " stroke="#191919" stroke-width="0.35 px" style="stroke-width:0.35;stroke-miterlimit:4;stroke-dasharray:none;fill:#cccccc;fill-rule: evenodd "/>
<path id="Part__Feature_f0109"  d="M -90.4 -21.25 L -172.85 -21.25 L -172.85 -20.05 L -90.4 -20.05 L -90.4 -21.25 Z " stroke="#191919" stroke-width="0.35 px" style="stroke-width:0.35;stroke-miterlimit:4;stroke-dasharray:none;fill:#cccccc;fill-rule: evenodd "/>
<path id="Part__Feature_f0110"  d="M -172.85 -21.25 L -172.85 -21.25 L -172.85 -20.05 L -172.85 -20.05 L -172.85 -21.25 Z " stroke="#191919" stroke-width="0.35 px" style="stroke-width:0.35;stroke-miterlimit:4;stroke-dasharray:none;fill:#cccccc;fill-rule: evenodd "/>
<path id="Part__Feature_f0111"  d="M -172.85 -21.25 L -90.4 -21.25 L -90.4 -20.05 L -172.85 -20.05 L -172.85 -21.25 Z " stroke="#191919" stroke-width="0.35 px" style="stroke-width:0.35;stroke-miterlimit:4;stroke-dasharray:none;fill:#cccccc;fill-rule: evenodd "/>
<path id="Part__Feature_f0112"  d="M -2.65 -21.25 L -2.65 -21.25 L -2.65 -20.05 L -2.65 -20.05 L -2.65 -21.25 Z " stroke="#191919" stroke-width="0.35 px" style="stroke-width:0.35;stroke-miterlimit:4;stroke-dasharray:none;fill:#cccccc;fill-rule: evenodd "/>
<path id="Part__Feature_f0113"  d="M -2.65 -21.25 L -85.1 -21.25 L -85.1 -20.05 L -2.65 -20.05 L -2.65 -21.25 Z " stroke="#191919" stroke-width="0.35 px" style="stroke-width:0.35;stroke-miterlimit:4;stroke-dasharray:none;fill:#cccccc;fill-rule: evenodd "/>
<path id="Part__Feature_f0114"  d="M -85.1 -21.25 L -85.1 -21.25 L -85.1 -20.05 L -85.1 -20.05 L -85.1 -21.25 Z " stroke="#191919" stroke-width="0.35 px" style="stroke-width:0.35;stroke-miterlimit:4;stroke-dasharray:none;fill:#cccccc;fill-rule: evenodd "/>
<path id="Part__Feature_f0115"  d="M -85.1 -21.25 L -2.65 -21.25 L -2.65 -20.05 L -85.1 -20.05 L -85.1 -21.25 Z " stroke="#191919" stroke-width="0.35 px" style="stroke-width:0.35;stroke-miterlimit:4;stroke-dasharray:none;fill:#cccccc;fill-rule: evenodd "/>
<path id="Part__Feature_f0116"  d="M 85.1 -21.25 L 85.1 -21.25 L 85.1 -20.05 L 85.1 -20.05 L 85.1 -21.25 Z " stroke="#191919" stroke-width="0.35 px" style="stroke-width:0.35;stroke-miterlimit:4;stroke-dasharray:none;fill:#cccccc;fill-rule: evenodd "/>
<path id="Part__Feature_f0117"  d="M 85.1 -21.25 L 2.65 -21.25 L 2.65 -20.05 L 85.1 -20.05 L 85.1 -21.25 Z " stroke="#191919" stroke-width="0.35 px" style="stroke-width:0.35;stroke-miterlimit:4;stroke-dasharray:none;fill:#cccccc;fill-rule: evenodd "/>
<path id="Part__Feature_f0118"  d="M 2.65 -21.25 L 2.65 -21.25 L 2.65 -20.05 L 2.65 -20.05 L 2.65 -21.25 Z " stroke="#191919" stroke-width="0.35 px" style="stroke-width:0.35;stroke-miterlimit:4;stroke-dasharray:none;fill:#cccccc;fill-rule: evenodd "/>
<path id="Part__Feature_f0119"  d="M 2.65 -21.25 L 85.1 -21.25 L 85.1 -20.05 L 2.65 -20.05 L 2.65 -21.25 Z " stroke="#191919" stroke-width="0.35 px" style="stroke-width:0.35;stroke-miterlimit:4;stroke-dasharray:none;fill:#cccccc;fill-rule: evenodd "/>
<path id="Part__Feature_f0120"  d="M 172.85 -21.25 L 172.85 -21.25 L 172.85 -20.05 L 172.85 -20.05 L 172.85 -21.25 Z " stroke="#191919" stroke-width="0.35 px" style="stroke-width:0.35;stroke-miterlimit:4;stroke-dasharray:none;fill:#cccccc;fill-rule: evenodd "/>
<path id="Part__Feature_f0121"  d="M 172.85 -21.25 L 90.4 -21.25 L 90.4 -20.05 L 172.85 -20.05 L 172.85 -21.25 Z " stroke="#191919" stroke-width="0.35 px" style="stroke-width:0.35;stroke-miterlimit:4;stroke-dasharray:none;fill:#cccccc;fill-rule: evenodd "/>
<path id="Part__Feature_f0122"  d="M 90.4 -21.25 L 90.4 -21.25 L 90.4 -20.05 L 90.4 -20.05 L 90.4 -21.25 Z " stroke="#191919" stroke-width="0.35 px" style="stroke-width:0.35;stroke-miterlimit:4;stroke-dasharray:none;fill:#cccccc;fill-rule: evenodd "/>
<path id="Part__Feature_f0123"  d="M 90.4 -21.25 L 172.85 -21.25 L 172.85 -20.05 L 90.4 -20.05 L 90.4 -21.25 Z " stroke="#191919" stroke-width="0.35 px" style="stroke-width:0.35;stroke-miterlimit:4;stroke-dasharray:none;fill:#cccccc;fill-rule: evenodd "/>
<path id="Part__Feature_f0124"  d="M 172.85 -21.25 L 90.4 -21.25 L 90.4 -21.25 L 172.85 -21.25 L 172.85 -21.25 Z M 85.1 -21.25 L 2.65 -21.25 L 2.65 -21.25 L 85.1 -21.25 L 85.1 -21.25 Z M -2.65 -21.25 L -85.1 -21.25 L -85.1 -21.25 L -2.65 -21.25 L -2.65 -21.25 Z M -90.4 -21.25 L -172.85 -21.25 L -172.85 -21.25 L -90.4 -21.25 L -90.4 -21.25 Z M -217.0 -21.25 L -217.0 -21.25 L 217.0 -21.25 L 217.0 -21.25 A 1.0 1.0 0 0 0 216.0 -21.25 L -216.0 -21.25 A 1.0 1.0 0 0 0 -217.0 -21.25 Z " stroke="#191919" stroke-width="0.35 px" style="stroke-width:0.35;stroke-miterlimit:4;stroke-dasharray:none;fill:#cccccc;fill-rule: evenodd "/>
<path id="Part__Feature_f0125"  d="M -217.0 -21.25 L -217.0 -21.25 L -217.0 -20.05 L -217.0 -20.05 L -217.0 -21.25 Z " stroke="#191919" stroke-width="0.35 px" style="stroke-width:0.35;stroke-miterlimit:4;stroke-dasharray:none;fill:#cccccc;fill-rule: evenodd "/>
<path id="Part__Feature_f0126"  d="M 90.4 -20.05 L 90.4 -20.05 L 172.85 -20.05 L 172.85 -20.05 L 90.4 -20.05 Z M 2.65 -20.05 L 2.65 -20.05 L 85.1 -20.05 L 85.1 -20.05 L 2.65 -20.05 Z M -85.1 -20.05 L -85.1 -20.05 L -2.65 -20.05 L -2.65 -20.05 L -85.1 -20.05 Z M -172.85 -20.05 L -172.85 -20.05 L -90.4 -20.05 L -90.4 -20.05 L -172.85 -20.05 Z M 217.0 -20.05 L 217.0 -20.05 A 1.0 1.0 0 0 0 216.0 -20.05 L -216.0 -20.05 A 1.0 1.0 0 0 0 -217.0 -20.05 L -217.0 -20.05 L 217.0 -20.05 Z " stroke="#191919" stroke-width="0.35 px" style="stroke-width:0.35;stroke-miterlimit:4;stroke-dasharray:none;fill:#cccccc;fill-rule: evenodd "/>
<path id="Part__Feature_f0127"  d="M 217.0 -21.25 L 217.0 -21.25 L 217.0 -20.05 L 217.0 -20.05 L 217.0 -21.25 Z " stroke="#191919" stroke-width="0.35 px" style="stroke-width:0.35;stroke-miterlimit:4;stroke-dasharray:none;fill:#cccccc;fill-rule: evenodd "/>
<path id="Part__Feature_f0128"  d="M -203.3918 15.0 L -203.3918 15.0 A 2.1082 2.1082 0 0 1 -207.6082 15.0 L -207.6082 15.0 A 2.1082 2.1082 0 0 0 -203.3918 15.0 Z " stroke="#191919" stroke-width="0.35 px" style="stroke-width:0.35;stroke-miterlimit:4;stroke-dasharray:none;fill:#cccccc;fill-rule: evenodd "/>
<path id="Part__Feature_f0129"  d="M -203.3918 -15.0 L -203.3918 -15.0 A 2.1082 2.1082 0 0 1 -207.6082 -15.0 L -207.6082 -15.0 A 2.1082 2.1082 0 0 0 -203.3918 -15.0 Z " stroke="#191919" stroke-width="0.35 px" style="stroke-width:0.35;stroke-miterlimit:4;stroke-dasharray:none;fill:#cccccc;fill-rule: evenodd "/>
<path id="Part__Feature_f0130"  d="M -190.3918 -15.0 L -190.3918 -15.0 A 2.1082 2.1082 0 0 1 -194.6082 -15.0 L -194.6082 -15.0 A 2.1082 2.1082 0 0 0 -190.3918 -15.0 Z " stroke="#191919" stroke-width="0.35 px" style="stroke-width:0.35;stroke-miterlimit:4;stroke-dasharray:none;fill:#cccccc;fill-rule: evenodd "/>
<path id="Part__Feature_f0131"  d="M -190.3918 15.0 L -190.3918 15.0 A 2.1082 2.1082 0 0 1 -194.6082 15.0 L -194.6082 15.0 A 2.1082 2.1082 0 0 0 -190.3918 15.0 Z " stroke="#191919" stroke-width="0.35 px" style="stroke-width:0.35;stroke-miterlimit:4;stroke-dasharray:none;fill:#cccccc;fill-rule: evenodd "/>
<path id="Part__Feature_f0132"  d="M 199.1082 15.0 L 199.1082 15.0 A 2.1082 2.1082 0 0 1 194.8918 15.0 L 194.8918 15.0 A 2.1082 2.1082 0 0 0 199.1082 15.0 Z " stroke="#191919" stroke-width="0.35 px" style="stroke-width:0.35;stroke-miterlimit:4;stroke-dasharray:none;fill:#cccccc;fill-rule: evenodd "/>
<path id="Part__Feature_f0133"  d="M 199.1082 -15.0 L 199.1082 -15.0 A 2.1082 2.1082 0 0 1 194.8918 -15.0 L 194.8918 -15.0 A 2.1082 2.1082 0 0 0 199.1082 -15.0 Z " stroke="#191919" stroke-width="0.35 px" style="stroke-width:0.35;stroke-miterlimit:4;stroke-dasharray:none;fill:#cccccc;fill-rule: evenodd "/>
<path id="Part__Feature_f0134"  d="M 212.1082 -15.0 L 212.1082 -15.0 A 2.1082 2.1082 0 0 1 207.8918 -15.0 L 207.8918 -15.0 A 2.1082 2.1082 0 0 0 212.1082 -15.0 Z " stroke="#191919" stroke-width="0.35 px" style="stroke-width:0.35;stroke-miterlimit:4;stroke-dasharray:none;fill:#cccccc;fill-rule: evenodd "/>
<path id="Part__Feature_f0135"  d="M 212.1082 15.0 L 212.1082 15.0 A 2.1082 2.1082 0 0 1 207.8918 15.0 L 207.8918 15.0 A 2.1082 2.1082 0 0 0 212.1082 15.0 Z " stroke="#191919" stroke-width="0.35 px" style="stroke-width:0.35;stroke-miterlimit:4;stroke-dasharray:none;fill:#cccccc;fill-rule: evenodd "/>
<path id="Part__Feature_f0136"  d="M 59.5795 -3.25 L 59.5795 -3.25 A 1.0795 1.0795 0 0 1 57.4205 -3.25 L 57.4205 -3.25 A 1.0795 1.0795 0 0 0 59.5795 -3.25 Z " stroke="#191919" stroke-width="0.35 px" style="stroke-width:0.35;stroke-miterlimit:4;stroke-dasharray:none;fill:#cccccc;fill-rule: evenodd "/>
<path id="Part__Feature_f0137"  d="M -57.4205 3.25 L -57.4205 3.25 A 1.0795 1.0795 0 0 1 -59.5795 3.25 L -59.5795 3.25 A 1.0795 1.0795 0 0 0 -57.4205 3.25 Z " stroke="#191919" stroke-width="0.35 px" style="stroke-width:0.35;stroke-miterlimit:4;stroke-dasharray:none;fill:#cccccc;fill-rule: evenodd "/>
<path id="Part__Feature_f0138"  d="M 217.0 -20.05 A 1.0 1.0 0 0 0 216.0 -20.05 L 216.0 -21.25 A 1.0 1.0 0 0 1 217.0 -21.25 L 217.0 -20.05 Z " stroke="#191919" stroke-width="0.35 px" style="stroke-width:0.35;stroke-miterlimit:4;stroke-dasharray:none;fill:#cccccc;fill-rule: evenodd "/>
<path id="Part__Feature_f0139"  d="M -216.0 -20.05 A 1.0 1.0 0 0 0 -217.0 -20.05 L -217.0 -21.25 A 1.0 1.0 0 0 1 -216.0 -21.25 L -216.0 -20.05 Z " stroke="#191919" stroke-width="0.35 px" style="stroke-width:0.35;stroke-miterlimit:4;stroke-dasharray:none;fill:#cccccc;fill-rule: evenodd "/>
<path id="Part__Feature_f0140"  d="M -217.0 20.05 A 1.0 1.0 0 0 0 -216.0 20.05 L -216.0 21.25 A 1.0 1.0 0 0 1 -217.0 21.25 L -217.0 20.05 Z " stroke="#191919" stroke-width="0.35 px" style="stroke-width:0.35;stroke-miterlimit:4;stroke-dasharray:none;fill:#cccccc;fill-rule: evenodd "/>
<path id="Part__Feature_f0141"  d="M 216.0 20.05 A 1.0 1.0 0 0 0 217.0 20.05 L 217.0 21.25 A 1.0 1.0 0 0 1 216.0 21.25 L 216.0 20.05 Z " stroke="#191919" stroke-width="0.35 px" style="stroke-width:0.35;stroke-miterlimit:4;stroke-dasharray:none;fill:#cccccc;fill-rule: evenodd "/>
<title>150-0180 rev B</title>
</g>
</svg>