<?xml version="1.0"?>
<!DOCTYPE svg PUBLIC "-//W3C//DTD SVG 1.1//EN" "http://www.w3.org/Graphics/SVG/1.1/DTD/svg11.dtd">
<svg width="442.68mm" height="95.27999984mm" viewBox="0 0 442.68 95.27999984" xmlns="http://www.w3.org/2000/svg" version="1.1">
<g id="Part__Feature" transform="translate(221.340000,-19.360000) scale(1,-1)">
<path id="Part__Feature_f0000"  d="M 209.1082 -47.0 A 2.1082 2.1082 0 0 0 204.8918 -47.0 L 204.8918 -47.0 A 2.1082 2.1082 0 0 1 209.1082 -47.0 L 209.1082 -47.0 Z " stroke="#191919" stroke-width="0.35 px" style="stroke-width:0.35;stroke-miterlimit:4;stroke-dasharray:none;fill:#cccccc;fill-rule: evenodd "/>
<path id="Part__Feature_f0001"  d="M 209.1082 -87.0 A 2.1082 2.1082 0 0 0 204.8918 -87.0 L 204.8918 -87.0 A 2.1082 2.1082 0 0 1 209.1082 -87.0 L 209.1082 -87.0 Z " stroke="#191919" stroke-width="0.35 px" style="stroke-width:0.35;stroke-miterlimit:4;stroke-dasharray:none;fill:#cccccc;fill-rule: evenodd "/>
<path id="Part__Feature_f0002"  d="M 189.1082 -87.0 A 2.1082 2.1082 0 0 0 184.8918 -87.0 L 184.8918 -87.0 A 2.1082 2.1082 0 0 1 189.1082 -87.0 L 189.1082 -87.0 Z " stroke="#191919" stroke-width="0.35 px" style="stroke-width:0.35;stroke-miterlimit:4;stroke-dasharray:none;fill:#cccccc;fill-rule: evenodd "/>
<path id="Part__Feature_f0003"  d="M 189.1082 -47.0 A 2.1082 2.1082 0 0 0 184.8918 -47.0 L 184.8918 -47.0 A 2.1082 2.1082 0 0 1 189.1082 -47.0 L 189.1082 -47.0 Z " stroke="#191919" stroke-width="0.35 px" style="stroke-width:0.35;stroke-miterlimit:4;stroke-dasharray:none;fill:#cccccc;fill-rule: evenodd "/>
<path id="Part__Feature_f0004"  d="M -190.3918 -47.0 A 2.1082 2.1082 0 0 0 -194.6082 -47.0 L -194.6082 -47.0 A 2.1082 2.1082 0 0 1 -190.3918 -47.0 L -190.3918 -47.0 Z " stroke="#191919" stroke-width="0.35 px" style="stroke-width:0.35;stroke-miterlimit:4;stroke-dasharray:none;fill:#cccccc;fill-rule: evenodd "/>
<path id="Part__Feature_f0005"  d="M -190.3918 -87.0 A 2.1082 2.1082 0 0 0 -194.6082 -87.0 L -194.6082 -87.0 A 2.1082 2.1082 0 0 1 -190.3918 -87.0 L -190.3918 -87.0 Z " stroke="#191919" stroke-width="0.35 px" style="stroke-width:0.35;stroke-miterlimit:4;stroke-dasharray:none;fill:#cccccc;fill-rule: evenodd "/>
<path id="Part__Feature_f0006"  d="M -203.3918 -87.0 A 2.1082 2.1082 0 0 0 -207.6082 -87.0 L -207.6082 -87.0 A 2.1082 2.1082 0 0 1 -203.3918 -87.0 L -203.3918 -87.0 Z " stroke="#191919" stroke-width="0.35 px" style="stroke-width:0.35;stroke-miterlimit:4;stroke-dasharray:none;fill:#cccccc;fill-rule: evenodd "/>
<path id="Part__Feature_f0007"  d="M -203.3918 -47.0 A 2.1082 2.1082 0 0 0 -207.6082 -47.0 L -207.6082 -47.0 A 2.1082 2.1082 0 0 1 -203.3918 -47.0 L -203.3918 -47.0 Z " stroke="#191919" stroke-width="0.35 px" style="stroke-width:0.35;stroke-miterlimit:4;stroke-dasharray:none;fill:#cccccc;fill-rule: evenodd "/>
<path id="Part__Feature_f0008"  d="M -76.920499991 -67.0 A 1.0795 1.0795 0 0 0 -79.079499991 -67.0 L -79.079499991 -67.0 A 1.0795 1.0795 0 0 1 -76.920499991 -67.0 L -76.920499991 -67.0 Z " stroke="#191919" stroke-width="0.35 px" style="stroke-width:0.35;stroke-miterlimit:4;stroke-dasharray:none;fill:#cccccc;fill-rule: evenodd "/>
<path id="Part__Feature_f0009"  d="M 79.079499991 -67.0 A 1.0795 1.0795 0 0 0 76.920499991 -67.0 L 76.920499991 -67.0 A 1.0795 1.0795 0 0 1 79.079499991 -67.0 L 79.079499991 -67.0 Z " stroke="#191919" stroke-width="0.35 px" style="stroke-width:0.35;stroke-miterlimit:4;stroke-dasharray:none;fill:#cccccc;fill-rule: evenodd "/>
<path id="Part__Feature_f0010"  d="M -198.5 -56.0 A 11.0 11.0 0 0 0 -187.5 -67.0 L -188.0 -67.0 A 10.5 10.5 0 0 1 -198.5 -56.5 L -198.5 -56.0 Z " stroke="#191919" stroke-width="0.35 px" style="stroke-width:0.35;stroke-miterlimit:4;stroke-dasharray:none;fill:#cccccc;fill-rule: evenodd "/>
<path id="Part__Feature_f0011"  d="M 201.5 -56.0 A 11.0 11.0 0 0 0 212.5 -67.0 L 212.0 -67.0 A 10.5 10.5 0 0 1 201.5 -56.5 L 201.5 -56.0 Z " stroke="#191919" stroke-width="0.35 px" style="stroke-width:0.35;stroke-miterlimit:4;stroke-dasharray:none;fill:#cccccc;fill-rule: evenodd "/>
<path id="Part__Feature_f0012"  d="M 201.5 -56.5 A 10.5 10.5 0 0 0 212.0 -67.0 L 212.0 -67.0 A 10.5 10.5 0 0 1 201.5 -56.5 L 201.5 -56.5 Z " stroke="#191919" stroke-width="0.35 px" style="stroke-width:0.35;stroke-miterlimit:4;stroke-dasharray:none;fill:#cccccc;fill-rule: evenodd "/>
<path id="Part__Feature_f0013"  d="M -198.5 -56.5 A 10.5 10.5 0 0 0 -188.0 -67.0 L -188.0 -67.0 A 10.5 10.5 0 0 1 -198.5 -56.5 L -198.5 -56.5 Z " stroke="#191919" stroke-width="0.35 px" style="stroke-width:0.35;stroke-miterlimit:4;stroke-dasharray:none;fill:#cccccc;fill-rule: evenodd "/>
<path id="Part__Feature_f0014"  d="M 170.1 -81.263899942 A 4.5 4.5 0 0 0 174.6 -85.763899942 L 174.6 -85.763899942 A 4.5 4.5 0 0 1 170.1 -81.263899942 L 170.1 -81.263899942 Z " stroke="#191919" stroke-width="0.35 px" style="stroke-width:0.35;stroke-miterlimit:4;stroke-dasharray:none;fill:#cccccc;fill-rule: evenodd "/>
<path id="Part__Feature_f0015"  d="M 131.1 -81.263899942 A 4.5 4.5 0 0 0 135.6 -85.763899942 L 135.6 -85.763899942 A 4.5 4.5 0 0 1 131.1 -81.263899942 L 131.1 -81.263899942 Z " stroke="#191919" stroke-width="0.35 px" style="stroke-width:0.35;stroke-miterlimit:4;stroke-dasharray:none;fill:#cccccc;fill-rule: evenodd "/>
<path id="Part__Feature_f0016"  d="M 131.1 -43.736100058 A 4.5 4.5 0 0 0 135.6 -48.236100058 L 135.6 -48.236100058 A 4.5 4.5 0 0 1 131.1 -43.736100058 L 131.1 -43.736100058 Z " stroke="#191919" stroke-width="0.35 px" style="stroke-width:0.35;stroke-miterlimit:4;stroke-dasharray:none;fill:#cccccc;fill-rule: evenodd "/>
<path id="Part__Feature_f0017"  d="M 66.1 -43.736100058 A 4.5 4.5 0 0 0 70.6 -48.236100058 L 70.6 -48.236100058 A 4.5 4.5 0 0 1 66.1 -43.736100058 L 66.1 -43.736100058 Z " stroke="#191919" stroke-width="0.35 px" style="stroke-width:0.35;stroke-miterlimit:4;stroke-dasharray:none;fill:#cccccc;fill-rule: evenodd "/>
<path id="Part__Feature_f0018"  d="M 63.6943569288 -56.75 A 10.25 10.25 0 0 0 73.9443569288 -67.0 L 73.9443569288 -67.0 A 10.25 10.25 0 0 1 63.6943569288 -56.75 L 63.6943569288 -56.75 Z " stroke="#191919" stroke-width="0.35 px" style="stroke-width:0.35;stroke-miterlimit:4;stroke-dasharray:none;fill:#cccccc;fill-rule: evenodd "/>
<path id="Part__Feature_f0019"  d="M 164.35 -56.75 A 10.25 10.25 0 0 0 174.6 -67.0 L 174.6 -67.0 A 10.25 10.25 0 0 1 164.35 -56.75 L 164.35 -56.75 Z " stroke="#191919" stroke-width="0.35 px" style="stroke-width:0.35;stroke-miterlimit:4;stroke-dasharray:none;fill:#cccccc;fill-rule: evenodd "/>
<path id="Part__Feature_f0020"  d="M -95.65 -56.75 A 10.25 10.25 0 0 0 -85.4 -67.0 L -85.4 -67.0 A 10.25 10.25 0 0 1 -95.65 -56.75 L -95.65 -56.75 Z " stroke="#191919" stroke-width="0.35 px" style="stroke-width:0.35;stroke-miterlimit:4;stroke-dasharray:none;fill:#cccccc;fill-rule: evenodd "/>
<path id="Part__Feature_f0021"  d="M 66.1 -81.263899942 A 4.5 4.5 0 0 0 70.6 -85.763899942 L 70.6 -85.763899942 A 4.5 4.5 0 0 1 66.1 -81.263899942 L 66.1 -81.263899942 Z " stroke="#191919" stroke-width="0.35 px" style="stroke-width:0.35;stroke-miterlimit:4;stroke-dasharray:none;fill:#cccccc;fill-rule: evenodd "/>
<path id="Part__Feature_f0022"  d="M 27.1 -43.736100058 A 4.5 4.5 0 0 0 31.6 -48.236100058 L 31.6 -48.236100058 A 4.5 4.5 0 0 1 27.1 -43.736100058 L 27.1 -43.736100058 Z " stroke="#191919" stroke-width="0.35 px" style="stroke-width:0.35;stroke-miterlimit:4;stroke-dasharray:none;fill:#cccccc;fill-rule: evenodd "/>
<path id="Part__Feature_f0023"  d="M -37.9 -81.263899942 A 4.5 4.5 0 0 0 -33.4 -85.763899942 L -33.4 -85.763899942 A 4.5 4.5 0 0 1 -37.9 -81.263899942 L -37.9 -81.263899942 Z " stroke="#191919" stroke-width="0.35 px" style="stroke-width:0.35;stroke-miterlimit:4;stroke-dasharray:none;fill:#cccccc;fill-rule: evenodd "/>
<path id="Part__Feature_f0024"  d="M -76.9 -81.263899942 A 4.5 4.5 0 0 0 -72.4 -85.763899942 L -72.4 -85.763899942 A 4.5 4.5 0 0 1 -76.9 -81.263899942 L -76.9 -81.263899942 Z " stroke="#191919" stroke-width="0.35 px" style="stroke-width:0.35;stroke-miterlimit:4;stroke-dasharray:none;fill:#cccccc;fill-rule: evenodd "/>
<path id="Part__Feature_f0025"  d="M -141.9 -81.263899942 A 4.5 4.5 0 0 0 -137.4 -85.763899942 L -137.4 -85.763899942 A 4.5 4.5 0 0 1 -141.9 -81.263899942 L -141.9 -81.263899942 Z " stroke="#191919" stroke-width="0.35 px" style="stroke-width:0.35;stroke-miterlimit:4;stroke-dasharray:none;fill:#cccccc;fill-rule: evenodd "/>
<path id="Part__Feature_f0026"  d="M -141.9 -43.736100058 A 4.5 4.5 0 0 0 -137.4 -48.236100058 L -137.4 -48.236100058 A 4.5 4.5 0 0 1 -141.9 -43.736100058 L -141.9 -43.736100058 Z " stroke="#191919" stroke-width="0.35 px" style="stroke-width:0.35;stroke-miterlimit:4;stroke-dasharray:none;fill:#cccccc;fill-rule: evenodd "/>
<path id="Part__Feature_f0027"  d="M -76.9 -43.736100058 A 4.5 4.5 0 0 0 -72.4 -48.236100058 L -72.4 -48.236100058 A 4.5 4.5 0 0 1 -76.9 -43.736100058 L -76.9 -43.736100058 Z " stroke="#191919" stroke-width="0.35 px" style="stroke-width:0.35;stroke-miterlimit:4;stroke-dasharray:none;fill:#cccccc;fill-rule: evenodd "/>
<path id="Part__Feature_f0028"  d="M -37.9 -43.736100058 A 4.5 4.5 0 0 0 -33.4 -48.236100058 L -33.4 -48.236100058 A 4.5 4.5 0 0 1 -37.9 -43.736100058 L -37.9 -43.736100058 Z " stroke="#191919" stroke-width="0.35 px" style="stroke-width:0.35;stroke-miterlimit:4;stroke-dasharray:none;fill:#cccccc;fill-rule: evenodd "/>
<path id="Part__Feature_f0029"  d="M 170.1 -43.736100058 A 4.5 4.5 0 0 0 174.6 -48.236100058 L 174.6 -48.236100058 A 4.5 4.5 0 0 1 170.1 -43.736100058 L 170.1 -43.736100058 Z " stroke="#191919" stroke-width="0.35 px" style="stroke-width:0.35;stroke-miterlimit:4;stroke-dasharray:none;fill:#cccccc;fill-rule: evenodd "/>
<path id="Part__Feature_f0030"  d="M 27.1 -81.263899942 A 4.5 4.5 0 0 0 31.6 -85.763899942 L 31.6 -85.763899942 A 4.5 4.5 0 0 1 27.1 -81.263899942 L 27.1 -81.263899942 Z " stroke="#191919" stroke-width="0.35 px" style="stroke-width:0.35;stroke-miterlimit:4;stroke-dasharray:none;fill:#cccccc;fill-rule: evenodd "/>
<path id="Part__Feature_f0031"  d="M 185.5 -95.695000014 L 186.5 -95.695000014 L 186.5 -95.695000014 L 185.5 -95.695000014 L 185.5 -95.695000014 Z " stroke="#191919" stroke-width="0.35 px" style="stroke-width:0.35;stroke-miterlimit:4;stroke-dasharray:none;fill:#cccccc;fill-rule: evenodd "/>
<path id="Part__Feature_f0032"  d="M -185.5 -38.304999986 L -186.5 -38.304999986 L -186.5 -38.304999986 L -185.5 -38.304999986 L -185.5 -38.304999986 Z " stroke="#191919" stroke-width="0.35 px" style="stroke-width:0.35;stroke-miterlimit:4;stroke-dasharray:none;fill:#cccccc;fill-rule: evenodd "/>
<path id="Part__Feature_f0033"  d="M 217.0 -108.59999992 L 217.0 -25.40000008 L 217.0 -25.40000008 L 217.0 -108.59999992 L 217.0 -108.59999992 Z " stroke="#191919" stroke-width="0.35 px" style="stroke-width:0.35;stroke-miterlimit:4;stroke-dasharray:none;fill:#cccccc;fill-rule: evenodd "/>
<path id="Part__Feature_f0034"  d="M 185.5 -38.304999986 L 186.5 -38.304999986 L 186.5 -38.304999986 L 185.5 -38.304999986 L 185.5 -38.304999986 Z " stroke="#191919" stroke-width="0.35 px" style="stroke-width:0.35;stroke-miterlimit:4;stroke-dasharray:none;fill:#cccccc;fill-rule: evenodd "/>
<path id="Part__Feature_f0035"  d="M -217.0 -25.40000008 L -217.0 -108.59999992 L -217.0 -108.59999992 L -217.0 -25.40000008 L -217.0 -25.40000008 Z " stroke="#191919" stroke-width="0.35 px" style="stroke-width:0.35;stroke-miterlimit:4;stroke-dasharray:none;fill:#cccccc;fill-rule: evenodd "/>
<path id="Part__Feature_f0036"  d="M -185.5 -95.695000014 L -186.5 -95.695000014 L -186.5 -95.695000014 L -185.5 -95.695000014 L -185.5 -95.695000014 Z " stroke="#191919" stroke-width="0.35 px" style="stroke-width:0.35;stroke-miterlimit:4;stroke-dasharray:none;fill:#cccccc;fill-rule: evenodd "/>
<path id="Part__Feature_f0037"  d="M 209.1082 -47.0 A 2.1082 2.1082 0 0 1 204.8918 -47.0 A 2.1082 2.1082 0 0 1 209.1082 -47.0 Z M 209.1082 -87.0 A 2.1082 2.1082 0 0 1 204.8918 -87.0 A 2.1082 2.1082 0 0 1 209.1082 -87.0 Z M 189.1082 -87.0 A 2.1082 2.1082 0 0 1 184.8918 -87.0 A 2.1082 2.1082 0 0 1 189.1082 -87.0 Z M 189.1082 -47.0 A 2.1082 2.1082 0 0 1 184.8918 -47.0 A 2.1082 2.1082 0 0 1 189.1082 -47.0 Z M -190.3918 -47.0 A 2.1082 2.1082 0 0 1 -194.6082 -47.0 A 2.1082 2.1082 0 0 1 -190.3918 -47.0 Z M -190.3918 -87.0 A 2.1082 2.1082 0 0 1 -194.6082 -87.0 A 2.1082 2.1082 0 0 1 -190.3918 -87.0 Z M -203.3918 -87.0 A 2.1082 2.1082 0 0 1 -207.6082 -87.0 A 2.1082 2.1082 0 0 1 -203.3918 -87.0 Z M -203.3918 -47.0 A 2.1082 2.1082 0 0 1 -207.6082 -47.0 A 2.1082 2.1082 0 0 1 -203.3918 -47.0 Z M -76.920499991 -67.0 A 1.0795 1.0795 0 0 1 -79.079499991 -67.0 A 1.0795 1.0795 0 0 1 -76.920499991 -67.0 Z M 79.079499991 -67.0 A 1.0795 1.0795 0 0 1 76.920499991 -67.0 A 1.0795 1.0795 0 0 1 79.079499991 -67.0 Z M 198.5 -78.0 A 11.0 11.0 0 0 0 198.5 -56.0 L 201.5 -56.0 A 11.0 11.0 0 0 0 212.5 -67.0 A 11.0 11.0 0 0 0 201.5 -78.0 L 198.5 -78.0 Z M -201.5 -78.0 A 11.0 11.0 0 0 0 -201.5 -56.0 L -198.5 -56.0 A 11.0 11.0 0 0 0 -187.5 -67.0 A 11.0 11.0 0 0 0 -198.5 -78.0 L -201.5 -78.0 Z M 170.1 -81.263899942 L 141.9 -81.263899942 A 4.5 4.5 0 0 1 141.9 -90.263899942 L 170.1 -90.263899942 A 4.5 4.5 0 0 1 174.6 -85.763899942 A 4.5 4.5 0 0 1 170.1 -81.263899942 Z M 131.1 -81.263899942 L 76.9 -81.263899942 A 4.5 4.5 0 0 1 76.9 -90.263899942 L 131.1 -90.263899942 A 4.5 4.5 0 0 1 135.6 -85.763899942 A 4.5 4.5 0 0 1 131.1 -81.263899942 Z M 131.1 -43.736100058 L 76.9 -43.736100058 A 4.5 4.5 0 0 1 76.9 -52.736100058 L 131.1 -52.736100058 A 4.5 4.5 0 0 1 135.6 -48.236100058 A 4.5 4.5 0 0 1 131.1 -43.736100058 Z M 66.1 -43.736100058 L 37.9 -43.736100058 A 4.5 4.5 0 1 1 37.9 -52.736100058 L 66.1 -52.736100058 A 4.5 4.5 0 0 1 70.6 -48.236100058 A 4.5 4.5 0 0 1 66.1 -43.736100058 Z M 63.6943569288 -56.75 L -63.6943569288 -56.75 A 10.25 10.25 0 0 1 -63.6943569288 -77.25 L 63.6943569288 -77.25 A 10.25 10.25 0 0 1 73.9443569288 -67.0 A 10.25 10.25 0 0 1 63.6943569288 -56.75 Z M 164.35 -56.75 L 95.65 -56.75 A 10.25 10.25 0 0 1 95.65 -77.25 L 164.35 -77.25 A 10.25 10.25 0 0 1 174.6 -67.0 A 10.25 10.25 0 0 1 164.35 -56.75 Z M -95.65 -77.25 A 10.25 10.25 0 0 1 -85.4 -67.0 A 10.25 10.25 0 0 1 -95.65 -56.75 L -164.35 -56.75 A 10.25 10.25 0 0 1 -164.35 -77.25 L -95.65 -77.25 Z M 66.1 -81.263899942 L 37.9 -81.263899942 A 4.5 4.5 0 1 1 37.9 -90.263899942 L 66.1 -90.263899942 A 4.5 4.5 0 0 1 70.6 -85.763899942 A 4.5 4.5 0 0 1 66.1 -81.263899942 Z M 27.1 -52.736100058 A 4.5 4.5 0 0 1 31.6 -48.236100058 A 4.5 4.5 0 0 1 27.1 -43.736100058 L -27.1 -43.736100058 A 4.5 4.5 0 1 1 -27.1 -52.736100058 L 27.1 -52.736100058 Z M -37.9 -90.263899942 A 4.5 4.5 0 0 1 -33.4 -85.763899942 A 4.5 4.5 0 0 1 -37.9 -81.263899942 L -66.1 -81.263899942 A 4.5 4.5 0 0 1 -66.1 -90.263899942 L -37.9 -90.263899942 Z M -76.9 -90.263899942 A 4.5 4.5 0 0 1 -72.4 -85.763899942 A 4.5 4.5 0 0 1 -76.9 -81.263899942 L -131.1 -81.263899942 A 4.5 4.5 0 0 1 -131.1 -90.263899942 L -76.9 -90.263899942 Z M -141.9 -90.263899942 A 4.5 4.5 0 0 1 -137.4 -85.763899942 A 4.5 4.5 0 0 1 -141.9 -81.263899942 L -170.1 -81.263899942 A 4.5 4.5 0 0 1 -170.1 -90.263899942 L -141.9 -90.263899942 Z M -141.9 -52.736100058 A 4.5 4.5 0 0 1 -137.4 -48.236100058 A 4.5 4.5 0 0 1 -141.9 -43.736100058 L -170.1 -43.736100058 A 4.5 4.5 0 0 1 -170.1 -52.736100058 L -141.9 -52.736100058 Z M -76.9 -52.736100058 A 4.5 4.5 0 0 1 -72.4 -48.236100058 A 4.5 4.5 0 0 1 -76.9 -43.736100058 L -131.1 -43.736100058 A 4.5 4.5 0 0 1 -131.1 -52.736100058 L -76.9 -52.736100058 Z M -37.9 -52.736100058 A 4.5 4.5 0 0 1 -33.4 -48.236100058 A 4.5 4.5 0 0 1 -37.9 -43.736100058 L -66.1 -43.736100058 A 4.5 4.5 0 1 1 -66.1 -52.736100058 L -37.9 -52.736100058 Z M 170.1 -43.736100058 L 141.9 -43.736100058 A 4.5 4.5 0 0 1 141.9 -52.736100058 L 170.1 -52.736100058 A 4.5 4.5 0 0 1 174.6 -48.236100058 A 4.5 4.5 0 0 1 170.1 -43.736100058 Z M 27.1 -90.263899942 A 4.5 4.5 0 0 1 31.6 -85.763899942 A 4.5 4.5 0 0 1 27.1 -81.263899942 L -27.1 -81.263899942 A 4.5 4.5 0 1 1 -27.1 -90.263899942 L 27.1 -90.263899942 Z M 185.5 -95.695000014 L 186.5 -95.695000014 L 186.5 -103.09999992 A 5.5 5.5 0 0 1 192.0 -108.59999992 L 217.0 -108.59999992 L 217.0 -25.40000008 L 192.0 -25.40000008 A 5.5 5.5 0 0 1 186.5 -30.90000008 L 186.5 -38.304999986 L 185.5 -38.304999986 L -185.5 -38.304999986 L -186.5 -38.304999986 L -186.5 -30.90000008 A 5.5 5.5 0 0 1 -192.0 -25.40000008 L -217.0 -25.40000008 L -217.0 -108.59999992 L -192.0 -108.59999992 A 5.5 5.5 0 0 1 -186.5 -103.09999992 L -186.5 -95.695000014 L -185.5 -95.695000014 L 185.5 -95.695000014 Z " stroke="#191919" stroke-width="0.35 px" style="stroke-width:0.35;stroke-miterlimit:4;stroke-dasharray:none;fill:#cccccc;fill-rule: evenodd "/>
<path id="Part__Feature_f0038"  d="M 209.1082 -47.0 A 2.1082 2.1082 0 0 1 204.8918 -47.0 A 2.1082 2.1082 0 0 1 209.1082 -47.0 Z M 209.1082 -87.0 A 2.1082 2.1082 0 0 1 204.8918 -87.0 A 2.1082 2.1082 0 0 1 209.1082 -87.0 Z M 189.1082 -87.0 A 2.1082 2.1082 0 0 1 184.8918 -87.0 A 2.1082 2.1082 0 0 1 189.1082 -87.0 Z M 189.1082 -47.0 A 2.1082 2.1082 0 0 1 184.8918 -47.0 A 2.1082 2.1082 0 0 1 189.1082 -47.0 Z M -190.3918 -47.0 A 2.1082 2.1082 0 0 1 -194.6082 -47.0 A 2.1082 2.1082 0 0 1 -190.3918 -47.0 Z M -190.3918 -87.0 A 2.1082 2.1082 0 0 1 -194.6082 -87.0 A 2.1082 2.1082 0 0 1 -190.3918 -87.0 Z M -203.3918 -87.0 A 2.1082 2.1082 0 0 1 -207.6082 -87.0 A 2.1082 2.1082 0 0 1 -203.3918 -87.0 Z M -203.3918 -47.0 A 2.1082 2.1082 0 0 1 -207.6082 -47.0 A 2.1082 2.1082 0 0 1 -203.3918 -47.0 Z M -76.920499991 -67.0 A 1.0795 1.0795 0 0 1 -79.079499991 -67.0 A 1.0795 1.0795 0 0 1 -76.920499991 -67.0 Z M 79.079499991 -67.0 A 1.0795 1.0795 0 0 1 76.920499991 -67.0 A 1.0795 1.0795 0 0 1 79.079499991 -67.0 Z M 198.5 -77.5 L 201.5 -77.5 A 10.5 10.5 0 0 1 212.0 -67.0 A 10.5 10.5 0 0 1 201.5 -56.5 L 198.5 -56.5 A 10.5 10.5 0 0 1 198.5 -77.5 Z M -198.5 -56.5 L -201.5 -56.5 A 10.5 10.5 0 0 1 -201.5 -77.5 L -198.5 -77.5 A 10.5 10.5 0 0 1 -188.0 -67.0 A 10.5 10.5 0 0 1 -198.5 -56.5 Z M 141.9 -90.263899942 L 170.1 -90.263899942 A 4.5 4.5 0 0 1 174.6 -85.763899942 A 4.5 4.5 0 0 1 170.1 -81.263899942 L 141.9 -81.263899942 A 4.5 4.5 0 0 1 141.9 -90.263899942 Z M 76.9 -90.263899942 L 131.1 -90.263899942 A 4.5 4.5 0 0 1 135.6 -85.763899942 A 4.5 4.5 0 0 1 131.1 -81.263899942 L 76.9 -81.263899942 A 4.5 4.5 0 0 1 76.9 -90.263899942 Z M 76.9 -52.736100058 L 131.1 -52.736100058 A 4.5 4.5 0 0 1 135.6 -48.236100058 A 4.5 4.5 0 0 1 131.1 -43.736100058 L 76.9 -43.736100058 A 4.5 4.5 0 0 1 76.9 -52.736100058 Z M 37.9 -52.736100058 L 66.1 -52.736100058 A 4.5 4.5 0 0 1 70.6 -48.236100058 A 4.5 4.5 0 0 1 66.1 -43.736100058 L 37.9 -43.736100058 A 4.5 4.5 0 1 1 37.9 -52.736100058 Z M -63.6943569288 -77.25 L 63.6943569288 -77.25 A 10.25 10.25 0 0 1 73.9443569288 -67.0 A 10.25 10.25 0 0 1 63.6943569288 -56.75 L -63.6943569288 -56.75 A 10.25 10.25 0 0 1 -63.6943569288 -77.25 Z M 95.65 -77.25 L 164.35 -77.25 A 10.25 10.25 0 0 1 174.6 -67.0 A 10.25 10.25 0 0 1 164.35 -56.75 L 95.65 -56.75 A 10.25 10.25 0 0 1 95.65 -77.25 Z M -95.65 -56.75 L -164.35 -56.75 A 10.25 10.25 0 0 1 -164.35 -77.25 L -95.65 -77.25 A 10.25 10.25 0 0 1 -85.4 -67.0 A 10.25 10.25 0 0 1 -95.65 -56.75 Z M 37.9 -90.263899942 L 66.1 -90.263899942 A 4.5 4.5 0 0 1 70.6 -85.763899942 A 4.5 4.5 0 0 1 66.1 -81.263899942 L 37.9 -81.263899942 A 4.5 4.5 0 1 1 37.9 -90.263899942 Z M 27.1 -43.736100058 L -27.1 -43.736100058 A 4.5 4.5 0 1 1 -27.1 -52.736100058 L 27.1 -52.736100058 A 4.5 4.5 0 0 1 31.6 -48.236100058 A 4.5 4.5 0 0 1 27.1 -43.736100058 Z M -37.9 -81.263899942 L -66.1 -81.263899942 A 4.5 4.5 0 0 1 -66.1 -90.263899942 L -37.9 -90.263899942 A 4.5 4.5 0 0 1 -33.4 -85.763899942 A 4.5 4.5 0 0 1 -37.9 -81.263899942 Z M -76.9 -81.263899942 L -131.1 -81.263899942 A 4.5 4.5 0 0 1 -131.1 -90.263899942 L -76.9 -90.263899942 A 4.5 4.5 0 0 1 -72.4 -85.763899942 A 4.5 4.5 0 0 1 -76.9 -81.263899942 Z M -141.9 -81.263899942 L -170.1 -81.263899942 A 4.5 4.5 0 0 1 -170.1 -90.263899942 L -141.9 -90.263899942 A 4.5 4.5 0 0 1 -137.4 -85.763899942 A 4.5 4.5 0 0 1 -141.9 -81.263899942 Z M -141.9 -43.736100058 L -170.1 -43.736100058 A 4.5 4.5 0 0 1 -170.1 -52.736100058 L -141.9 -52.736100058 A 4.5 4.5 0 0 1 -137.4 -48.236100058 A 4.5 4.5 0 0 1 -141.9 -43.736100058 Z M -76.9 -43.736100058 L -131.1 -43.736100058 A 4.5 4.5 0 0 1 -131.1 -52.736100058 L -76.9 -52.736100058 A 4.5 4.5 0 0 1 -72.4 -48.236100058 A 4.5 4.5 0 0 1 -76.9 -43.736100058 Z M -37.9 -43.736100058 L -66.1 -43.736100058 A 4.5 4.5 0 1 1 -66.1 -52.736100058 L -37.9 -52.736100058 A 4.5 4.5 0 0 1 -33.4 -48.236100058 A 4.5 4.5 0 0 1 -37.9 -43.736100058 Z M 141.9 -52.736100058 L 170.1 -52.736100058 A 4.5 4.5 0 0 1 174.6 -48.236100058 A 4.5 4.5 0 0 1 170.1 -43.736100058 L 141.9 -43.736100058 A 4.5 4.5 0 0 1 141.9 -52.736100058 Z M 27.1 -81.263899942 L -27.1 -81.263899942 A 4.5 4.5 0 1 1 -27.1 -90.263899942 L 27.1 -90.263899942 A 4.5 4.5 0 0 1 31.6 -85.763899942 A 4.5 4.5 0 0 1 27.1 -81.263899942 Z M 192.0 -108.59999992 L 217.0 -108.59999992 L 217.0 -25.40000008 L 192.0 -25.40000008 A 5.5 5.5 0 0 1 186.5 -30.90000008 L 186.5 -38.304999986 L 185.5 -38.304999986 L -185.5 -38.304999986 L -186.5 -38.304999986 L -186.5 -30.90000008 A 5.5 5.5 0 0 1 -192.0 -25.40000008 L -217.0 -25.40000008 L -217.0 -108.59999992 L -192.0 -108.59999992 A 5.5 5.5 0 0 1 -186.5 -103.09999992 L -186.5 -95.695000014 L -185.5 -95.695000014 L 185.5 -95.695000014 L 186.5 -95.695000014 L 186.5 -103.09999992 A 5.5 5.5 0 0 1 192.0 -108.59999992 Z " stroke="#191919" stroke-width="0.35 px" style="stroke-width:0.35;stroke-miterlimit:4;stroke-dasharray:none;fill:#cccccc;fill-rule: evenodd "/>
<path id="Part__Feature_f0039"  d="M 192.0 -25.40000008 L 192.0 -25.40000008 A 0.5 0.5 0 0 1 192.0 -24.90000008 L 192.0 -23.70000008 A 1.7 1.7 0 0 1 192.0 -25.40000008 Z " stroke="#191919" stroke-width="0.35 px" style="stroke-width:0.35;stroke-miterlimit:4;stroke-dasharray:none;fill:#cccccc;fill-rule: evenodd "/>
<path id="Part__Feature_f0040"  d="M 217.0 -25.40000008 A 1.7 1.7 0 0 1 217.0 -23.70000008 L 217.0 -24.90000008 A 0.5 0.5 0 0 1 217.0 -25.40000008 L 217.0 -25.40000008 Z " stroke="#191919" stroke-width="0.35 px" style="stroke-width:0.35;stroke-miterlimit:4;stroke-dasharray:none;fill:#cccccc;fill-rule: evenodd "/>
<path id="Part__Feature_f0041"  d="M 192.0 -23.70000008 L 217.0 -23.70000008 A 1.7 1.7 0 0 1 217.0 -25.40000008 L 192.0 -25.40000008 A 1.7 1.7 0 0 1 192.0 -23.70000008 Z " stroke="#191919" stroke-width="0.35 px" style="stroke-width:0.35;stroke-miterlimit:4;stroke-dasharray:none;fill:#cccccc;fill-rule: evenodd "/>
<path id="Part__Feature_f0042"  d="M 217.0 -25.40000008 L 192.0 -25.40000008 A 0.5 0.5 0 0 1 192.0 -24.90000008 L 217.0 -24.90000008 A 0.5 0.5 0 0 1 217.0 -25.40000008 Z " stroke="#191919" stroke-width="0.35 px" style="stroke-width:0.35;stroke-miterlimit:4;stroke-dasharray:none;fill:#cccccc;fill-rule: evenodd "/>
<path id="Part__Feature_f0043"  d="M 217.0 -23.70000008 L 217.0 -23.70000008 L 217.0 -24.90000008 L 217.0 -24.90000008 L 217.0 -23.70000008 Z " stroke="#191919" stroke-width="0.35 px" style="stroke-width:0.35;stroke-miterlimit:4;stroke-dasharray:none;fill:#cccccc;fill-rule: evenodd "/>
<path id="Part__Feature_f0044"  d="M 192.0 -23.70000008 L 192.0 -23.70000008 L 192.0 -24.90000008 L 192.0 -24.90000008 L 192.0 -23.70000008 Z " stroke="#191919" stroke-width="0.35 px" style="stroke-width:0.35;stroke-miterlimit:4;stroke-dasharray:none;fill:#cccccc;fill-rule: evenodd "/>
<path id="Part__Feature_f0045"  d="M 192.0 -23.70000008 L 192.0 -23.70000008 A 1.0 1.0 0 0 0 193.0 -23.70000008 L 216.0 -23.70000008 A 1.0 1.0 0 0 0 217.0 -23.70000008 L 217.0 -23.70000008 L 192.0 -23.70000008 Z " stroke="#191919" stroke-width="0.35 px" style="stroke-width:0.35;stroke-miterlimit:4;stroke-dasharray:none;fill:#cccccc;fill-rule: evenodd "/>
<path id="Part__Feature_f0046"  d="M 193.0 -24.90000008 L 216.0 -24.90000008 A 1.0 1.0 0 0 0 217.0 -24.90000008 L 217.0 -24.90000008 L 192.0 -24.90000008 L 192.0 -24.90000008 A 1.0 1.0 0 0 0 193.0 -24.90000008 Z " stroke="#191919" stroke-width="0.35 px" style="stroke-width:0.35;stroke-miterlimit:4;stroke-dasharray:none;fill:#cccccc;fill-rule: evenodd "/>
<path id="Part__Feature_f0047"  d="M 193.0 -23.70000008 L 216.0 -23.70000008 L 216.0 -24.90000008 L 193.0 -24.90000008 L 193.0 -23.70000008 Z " stroke="#191919" stroke-width="0.35 px" style="stroke-width:0.35;stroke-miterlimit:4;stroke-dasharray:none;fill:#cccccc;fill-rule: evenodd "/>
<path id="Part__Feature_f0048"  d="M 217.0 -108.59999992 L 217.0 -108.59999992 A 0.5 0.5 0 0 1 217.0 -109.09999992 L 217.0 -110.29999992 A 1.7 1.7 0 0 1 217.0 -108.59999992 Z " stroke="#191919" stroke-width="0.35 px" style="stroke-width:0.35;stroke-miterlimit:4;stroke-dasharray:none;fill:#cccccc;fill-rule: evenodd "/>
<path id="Part__Feature_f0049"  d="M 192.0 -108.59999992 A 1.7 1.7 0 0 1 192.0 -110.29999992 L 192.0 -109.09999992 A 0.5 0.5 0 0 1 192.0 -108.59999992 L 192.0 -108.59999992 Z " stroke="#191919" stroke-width="0.35 px" style="stroke-width:0.35;stroke-miterlimit:4;stroke-dasharray:none;fill:#cccccc;fill-rule: evenodd "/>
<path id="Part__Feature_f0050"  d="M 217.0 -110.29999992 L 192.0 -110.29999992 A 1.7 1.7 0 0 1 192.0 -108.59999992 L 217.0 -108.59999992 A 1.7 1.7 0 0 1 217.0 -110.29999992 Z " stroke="#191919" stroke-width="0.35 px" style="stroke-width:0.35;stroke-miterlimit:4;stroke-dasharray:none;fill:#cccccc;fill-rule: evenodd "/>
<path id="Part__Feature_f0051"  d="M 192.0 -108.59999992 L 217.0 -108.59999992 A 0.5 0.5 0 0 1 217.0 -109.09999992 L 192.0 -109.09999992 A 0.5 0.5 0 0 1 192.0 -108.59999992 Z " stroke="#191919" stroke-width="0.35 px" style="stroke-width:0.35;stroke-miterlimit:4;stroke-dasharray:none;fill:#cccccc;fill-rule: evenodd "/>
<path id="Part__Feature_f0052"  d="M 217.0 -110.29999992 L 217.0 -110.29999992 L 217.0 -109.09999992 L 217.0 -109.09999992 L 217.0 -110.29999992 Z " stroke="#191919" stroke-width="0.35 px" style="stroke-width:0.35;stroke-miterlimit:4;stroke-dasharray:none;fill:#cccccc;fill-rule: evenodd "/>
<path id="Part__Feature_f0053"  d="M 192.0 -110.29999992 L 192.0 -110.29999992 L 192.0 -109.09999992 L 192.0 -109.09999992 L 192.0 -110.29999992 Z " stroke="#191919" stroke-width="0.35 px" style="stroke-width:0.35;stroke-miterlimit:4;stroke-dasharray:none;fill:#cccccc;fill-rule: evenodd "/>
<path id="Part__Feature_f0054"  d="M 192.0 -110.29999992 L 192.0 -110.29999992 L 217.0 -110.29999992 L 217.0 -110.29999992 A 1.0 1.0 0 0 0 216.0 -110.29999992 L 193.0 -110.29999992 A 1.0 1.0 0 0 0 192.0 -110.29999992 Z " stroke="#191919" stroke-width="0.35 px" style="stroke-width:0.35;stroke-miterlimit:4;stroke-dasharray:none;fill:#cccccc;fill-rule: evenodd "/>
<path id="Part__Feature_f0055"  d="M 217.0 -109.09999992 L 217.0 -109.09999992 A 1.0 1.0 0 0 0 216.0 -109.09999992 L 193.0 -109.09999992 A 1.0 1.0 0 0 0 192.0 -109.09999992 L 192.0 -109.09999992 L 217.0 -109.09999992 Z " stroke="#191919" stroke-width="0.35 px" style="stroke-width:0.35;stroke-miterlimit:4;stroke-dasharray:none;fill:#cccccc;fill-rule: evenodd "/>
<path id="Part__Feature_f0056"  d="M 193.0 -110.29999992 L 216.0 -110.29999992 L 216.0 -109.09999992 L 193.0 -109.09999992 L 193.0 -110.29999992 Z " stroke="#191919" stroke-width="0.35 px" style="stroke-width:0.35;stroke-miterlimit:4;stroke-dasharray:none;fill:#cccccc;fill-rule: evenodd "/>
<path id="Part__Feature_f0057"  d="M -185.5 -38.304999986 L -185.5 -38.304999986 A 0.5 0.5 0 0 0 -185.5 -37.804999986 L -185.5 -36.604999986 A 1.7 1.7 0 0 1 -185.5 -38.304999986 Z " stroke="#191919" stroke-width="0.35 px" style="stroke-width:0.35;stroke-miterlimit:4;stroke-dasharray:none;fill:#cccccc;fill-rule: evenodd "/>
<path id="Part__Feature_f0058"  d="M 185.5 -38.304999986 A 1.7 1.7 0 0 0 185.5 -36.604999986 L 185.5 -37.804999986 A 0.5 0.5 0 0 1 185.5 -38.304999986 L 185.5 -38.304999986 Z " stroke="#191919" stroke-width="0.35 px" style="stroke-width:0.35;stroke-miterlimit:4;stroke-dasharray:none;fill:#cccccc;fill-rule: evenodd "/>
<path id="Part__Feature_f0059"  d="M -185.5 -36.604999986 L 185.5 -36.604999986 A 1.7 1.7 0 0 1 185.5 -38.304999986 L -185.5 -38.304999986 A 1.7 1.7 0 0 0 -185.5 -36.604999986 Z " stroke="#191919" stroke-width="0.35 px" style="stroke-width:0.35;stroke-miterlimit:4;stroke-dasharray:none;fill:#cccccc;fill-rule: evenodd "/>
<path id="Part__Feature_f0060"  d="M 185.5 -38.304999986 L -185.5 -38.304999986 A 0.5 0.5 0 0 0 -185.5 -37.804999986 L 185.5 -37.804999986 A 0.5 0.5 0 0 1 185.5 -38.304999986 Z " stroke="#191919" stroke-width="0.35 px" style="stroke-width:0.35;stroke-miterlimit:4;stroke-dasharray:none;fill:#cccccc;fill-rule: evenodd "/>
<path id="Part__Feature_f0061"  d="M -185.5 -36.604999986 L -185.5 -36.604999986 L -185.5 -37.804999986 L -185.5 -37.804999986 L -185.5 -36.604999986 Z " stroke="#191919" stroke-width="0.35 px" style="stroke-width:0.35;stroke-miterlimit:4;stroke-dasharray:none;fill:#cccccc;fill-rule: evenodd "/>
<path id="Part__Feature_f0062"  d="M 185.5 -36.604999986 L 185.5 -36.604999986 L 185.5 -37.804999986 L 185.5 -37.804999986 L 185.5 -36.604999986 Z " stroke="#191919" stroke-width="0.35 px" style="stroke-width:0.35;stroke-miterlimit:4;stroke-dasharray:none;fill:#cccccc;fill-rule: evenodd "/>
<path id="Part__Feature_f0063"  d="M 185.5 -36.604999986 L 185.5 -36.604999986 L -185.5 -36.604999986 L -185.5 -36.604999986 A 1.0 1.0 0 0 0 -184.5 -36.604999986 L 184.5 -36.604999986 A 1.0 1.0 0 0 0 185.5 -36.604999986 Z " stroke="#191919" stroke-width="0.35 px" style="stroke-width:0.35;stroke-miterlimit:4;stroke-dasharray:none;fill:#cccccc;fill-rule: evenodd "/>
<path id="Part__Feature_f0064"  d="M -185.5 -37.804999986 L -185.5 -37.804999986 A 1.0 1.0 0 0 0 -184.5 -37.804999986 L 184.5 -37.804999986 A 1.0 1.0 0 0 0 185.5 -37.804999986 L 185.5 -37.804999986 L -185.5 -37.804999986 Z " stroke="#191919" stroke-width="0.35 px" style="stroke-width:0.35;stroke-miterlimit:4;stroke-dasharray:none;fill:#cccccc;fill-rule: evenodd "/>
<path id="Part__Feature_f0065"  d="M 184.5 -36.604999986 L -184.5 -36.604999986 L -184.5 -37.804999986 L 184.5 -37.804999986 L 184.5 -36.604999986 Z " stroke="#191919" stroke-width="0.35 px" style="stroke-width:0.35;stroke-miterlimit:4;stroke-dasharray:none;fill:#cccccc;fill-rule: evenodd "/>
<path id="Part__Feature_f0066"  d="M 185.5 -95.695000014 L 185.5 -95.695000014 A 0.5 0.5 0 0 0 185.5 -96.195000014 L 185.5 -97.395000014 A 1.7 1.7 0 0 1 185.5 -95.695000014 Z " stroke="#191919" stroke-width="0.35 px" style="stroke-width:0.35;stroke-miterlimit:4;stroke-dasharray:none;fill:#cccccc;fill-rule: evenodd "/>
<path id="Part__Feature_f0067"  d="M -185.5 -95.695000014 A 1.7 1.7 0 0 0 -185.5 -97.395000014 L -185.5 -96.195000014 A 0.5 0.5 0 0 1 -185.5 -95.695000014 L -185.5 -95.695000014 Z " stroke="#191919" stroke-width="0.35 px" style="stroke-width:0.35;stroke-miterlimit:4;stroke-dasharray:none;fill:#cccccc;fill-rule: evenodd "/>
<path id="Part__Feature_f0068"  d="M 185.5 -97.395000014 L -185.5 -97.395000014 A 1.7 1.7 0 0 1 -185.5 -95.695000014 L 185.5 -95.695000014 A 1.7 1.7 0 0 0 185.5 -97.395000014 Z " stroke="#191919" stroke-width="0.35 px" style="stroke-width:0.35;stroke-miterlimit:4;stroke-dasharray:none;fill:#cccccc;fill-rule: evenodd "/>
<path id="Part__Feature_f0069"  d="M -185.5 -95.695000014 L 185.5 -95.695000014 A 0.5 0.5 0 0 0 185.5 -96.195000014 L -185.5 -96.195000014 A 0.5 0.5 0 0 1 -185.5 -95.695000014 Z " stroke="#191919" stroke-width="0.35 px" style="stroke-width:0.35;stroke-miterlimit:4;stroke-dasharray:none;fill:#cccccc;fill-rule: evenodd "/>
<path id="Part__Feature_f0070"  d="M 185.5 -97.395000014 L 185.5 -97.395000014 L 185.5 -96.195000014 L 185.5 -96.195000014 L 185.5 -97.395000014 Z " stroke="#191919" stroke-width="0.35 px" style="stroke-width:0.35;stroke-miterlimit:4;stroke-dasharray:none;fill:#cccccc;fill-rule: evenodd "/>
<path id="Part__Feature_f0071"  d="M -185.5 -97.395000014 L -185.5 -97.395000014 L -185.5 -96.195000014 L -185.5 -96.195000014 L -185.5 -97.395000014 Z " stroke="#191919" stroke-width="0.35 px" style="stroke-width:0.35;stroke-miterlimit:4;stroke-dasharray:none;fill:#cccccc;fill-rule: evenodd "/>
<path id="Part__Feature_f0072"  d="M -185.5 -97.395000014 L -185.5 -97.395000014 L 185.5 -97.395000014 L 185.5 -97.395000014 A 1.0 1.0 0 0 0 184.5 -97.395000014 L -184.5 -97.395000014 A 1.0 1.0 0 0 0 -185.5 -97.395000014 Z " stroke="#191919" stroke-width="0.35 px" style="stroke-width:0.35;stroke-miterlimit:4;stroke-dasharray:none;fill:#cccccc;fill-rule: evenodd "/>
<path id="Part__Feature_f0073"  d="M 185.5 -96.195000014 L 185.5 -96.195000014 A 1.0 1.0 0 0 0 184.5 -96.195000014 L -184.5 -96.195000014 A 1.0 1.0 0 0 0 -185.5 -96.195000014 L -185.5 -96.195000014 L 185.5 -96.195000014 Z " stroke="#191919" stroke-width="0.35 px" style="stroke-width:0.35;stroke-miterlimit:4;stroke-dasharray:none;fill:#cccccc;fill-rule: evenodd "/>
<path id="Part__Feature_f0074"  d="M -184.5 -97.395000014 L 184.5 -97.395000014 L 184.5 -96.195000014 L -184.5 -96.195000014 L -184.5 -97.395000014 Z " stroke="#191919" stroke-width="0.35 px" style="stroke-width:0.35;stroke-miterlimit:4;stroke-dasharray:none;fill:#cccccc;fill-rule: evenodd "/>
<path id="Part__Feature_f0075"  d="M -217.0 -25.40000008 L -217.0 -25.40000008 A 0.5 0.5 0 0 1 -217.0 -24.90000008 L -217.0 -23.70000008 A 1.7 1.7 0 0 1 -217.0 -25.40000008 Z " stroke="#191919" stroke-width="0.35 px" style="stroke-width:0.35;stroke-miterlimit:4;stroke-dasharray:none;fill:#cccccc;fill-rule: evenodd "/>
<path id="Part__Feature_f0076"  d="M -192.0 -25.40000008 A 1.7 1.7 0 0 1 -192.0 -23.70000008 L -192.0 -24.90000008 A 0.5 0.5 0 0 1 -192.0 -25.40000008 L -192.0 -25.40000008 Z " stroke="#191919" stroke-width="0.35 px" style="stroke-width:0.35;stroke-miterlimit:4;stroke-dasharray:none;fill:#cccccc;fill-rule: evenodd "/>
<path id="Part__Feature_f0077"  d="M -217.0 -23.70000008 L -192.0 -23.70000008 A 1.7 1.7 0 0 1 -192.0 -25.40000008 L -217.0 -25.40000008 A 1.7 1.7 0 0 1 -217.0 -23.70000008 Z " stroke="#191919" stroke-width="0.35 px" style="stroke-width:0.35;stroke-miterlimit:4;stroke-dasharray:none;fill:#cccccc;fill-rule: evenodd "/>
<path id="Part__Feature_f0078"  d="M -192.0 -25.40000008 L -217.0 -25.40000008 A 0.5 0.5 0 0 1 -217.0 -24.90000008 L -192.0 -24.90000008 A 0.5 0.5 0 0 1 -192.0 -25.40000008 Z " stroke="#191919" stroke-width="0.35 px" style="stroke-width:0.35;stroke-miterlimit:4;stroke-dasharray:none;fill:#cccccc;fill-rule: evenodd "/>
<path id="Part__Feature_f0079"  d="M -217.0 -23.70000008 L -217.0 -23.70000008 L -217.0 -24.90000008 L -217.0 -24.90000008 L -217.0 -23.70000008 Z " stroke="#191919" stroke-width="0.35 px" style="stroke-width:0.35;stroke-miterlimit:4;stroke-dasharray:none;fill:#cccccc;fill-rule: evenodd "/>
<path id="Part__Feature_f0080"  d="M -192.0 -23.70000008 L -192.0 -23.70000008 L -192.0 -24.90000008 L -192.0 -24.90000008 L -192.0 -23.70000008 Z " stroke="#191919" stroke-width="0.35 px" style="stroke-width:0.35;stroke-miterlimit:4;stroke-dasharray:none;fill:#cccccc;fill-rule: evenodd "/>
<path id="Part__Feature_f0081"  d="M -192.0 -23.70000008 L -192.0 -23.70000008 L -217.0 -23.70000008 L -217.0 -23.70000008 A 1.0 1.0 0 0 0 -216.0 -23.70000008 L -193.0 -23.70000008 A 1.0 1.0 0 0 0 -192.0 -23.70000008 Z " stroke="#191919" stroke-width="0.35 px" style="stroke-width:0.35;stroke-miterlimit:4;stroke-dasharray:none;fill:#cccccc;fill-rule: evenodd "/>
<path id="Part__Feature_f0082"  d="M -217.0 -24.90000008 L -217.0 -24.90000008 A 1.0 1.0 0 0 0 -216.0 -24.90000008 L -193.0 -24.90000008 A 1.0 1.0 0 0 0 -192.0 -24.90000008 L -192.0 -24.90000008 L -217.0 -24.90000008 Z " stroke="#191919" stroke-width="0.35 px" style="stroke-width:0.35;stroke-miterlimit:4;stroke-dasharray:none;fill:#cccccc;fill-rule: evenodd "/>
<path id="Part__Feature_f0083"  d="M -193.0 -23.70000008 L -216.0 -23.70000008 L -216.0 -24.90000008 L -193.0 -24.90000008 L -193.0 -23.70000008 Z " stroke="#191919" stroke-width="0.35 px" style="stroke-width:0.35;stroke-miterlimit:4;stroke-dasharray:none;fill:#cccccc;fill-rule: evenodd "/>
<path id="Part__Feature_f0084"  d="M -192.0 -108.59999992 L -192.0 -108.59999992 A 0.5 0.5 0 0 1 -192.0 -109.09999992 L -192.0 -110.29999992 A 1.7 1.7 0 0 1 -192.0 -108.59999992 Z " stroke="#191919" stroke-width="0.35 px" style="stroke-width:0.35;stroke-miterlimit:4;stroke-dasharray:none;fill:#cccccc;fill-rule: evenodd "/>
<path id="Part__Feature_f0085"  d="M -217.0 -108.59999992 A 1.7 1.7 0 0 1 -217.0 -110.29999992 L -217.0 -109.09999992 A 0.5 0.5 0 0 1 -217.0 -108.59999992 L -217.0 -108.59999992 Z " stroke="#191919" stroke-width="0.35 px" style="stroke-width:0.35;stroke-miterlimit:4;stroke-dasharray:none;fill:#cccccc;fill-rule: evenodd "/>
<path id="Part__Feature_f0086"  d="M -192.0 -110.29999992 L -217.0 -110.29999992 A 1.7 1.7 0 0 1 -217.0 -108.59999992 L -192.0 -108.59999992 A 1.7 1.7 0 0 1 -192.0 -110.29999992 Z " stroke="#191919" stroke-width="0.35 px" style="stroke-width:0.35;stroke-miterlimit:4;stroke-dasharray:none;fill:#cccccc;fill-rule: evenodd "/>
<path id="Part__Feature_f0087"  d="M -217.0 -108.59999992 L -192.0 -108.59999992 A 0.5 0.5 0 0 1 -192.0 -109.09999992 L -217.0 -109.09999992 A 0.5 0.5 0 0 1 -217.0 -108.59999992 Z " stroke="#191919" stroke-width="0.35 px" style="stroke-width:0.35;stroke-miterlimit:4;stroke-dasharray:none;fill:#cccccc;fill-rule: evenodd "/>
<path id="Part__Feature_f0088"  d="M -192.0 -110.29999992 L -192.0 -110.29999992 L -192.0 -109.09999992 L -192.0 -109.09999992 L -192.0 -110.29999992 Z " stroke="#191919" stroke-width="0.35 px" style="stroke-width:0.35;stroke-miterlimit:4;stroke-dasharray:none;fill:#cccccc;fill-rule: evenodd "/>
<path id="Part__Feature_f0089"  d="M -217.0 -110.29999992 L -217.0 -110.29999992 L -217.0 -109.09999992 L -217.0 -109.09999992 L -217.0 -110.29999992 Z " stroke="#191919" stroke-width="0.35 px" style="stroke-width:0.35;stroke-miterlimit:4;stroke-dasharray:none;fill:#cccccc;fill-rule: evenodd "/>
<path id="Part__Feature_f0090"  d="M -217.0 -110.29999992 L -217.0 -110.29999992 L -192.0 -110.29999992 L -192.0 -110.29999992 A 1.0 1.0 0 0 0 -193.0 -110.29999992 L -216.0 -110.29999992 A 1.0 1.0 0 0 0 -217.0 -110.29999992 Z " stroke="#191919" stroke-width="0.35 px" style="stroke-width:0.35;stroke-miterlimit:4;stroke-dasharray:none;fill:#cccccc;fill-rule: evenodd "/>
<path id="Part__Feature_f0091"  d="M -192.0 -109.09999992 L -192.0 -109.09999992 A 1.0 1.0 0 0 0 -193.0 -109.09999992 L -216.0 -109.09999992 A 1.0 1.0 0 0 0 -217.0 -109.09999992 L -217.0 -109.09999992 L -192.0 -109.09999992 Z " stroke="#191919" stroke-width="0.35 px" style="stroke-width:0.35;stroke-miterlimit:4;stroke-dasharray:none;fill:#cccccc;fill-rule: evenodd "/>
<path id="Part__Feature_f0092"  d="M -216.0 -110.29999992 L -193.0 -110.29999992 L -193.0 -109.09999992 L -216.0 -109.09999992 L -216.0 -110.29999992 Z " stroke="#191919" stroke-width="0.35 px" style="stroke-width:0.35;stroke-miterlimit:4;stroke-dasharray:none;fill:#cccccc;fill-rule: evenodd "/>
<path id="Part__Feature_f0093"  d="M -192.0 -25.40000008 A 5.5 5.5 0 0 0 -186.5 -30.90000008 L -186.5 -30.90000008 A 5.5 5.5 0 0 1 -192.0 -25.40000008 L -192.0 -25.40000008 Z " stroke="#191919" stroke-width="0.35 px" style="stroke-width:0.35;stroke-miterlimit:4;stroke-dasharray:none;fill:#cccccc;fill-rule: evenodd "/>
<path id="Part__Feature_f0094"  d="M -186.5 -30.90000008 L -186.5 -38.304999986 L -186.5 -38.304999986 L -186.5 -30.90000008 L -186.5 -30.90000008 Z " stroke="#191919" stroke-width="0.35 px" style="stroke-width:0.35;stroke-miterlimit:4;stroke-dasharray:none;fill:#cccccc;fill-rule: evenodd "/>
<path id="Part__Feature_f0095"  d="M -186.5 -103.09999992 A 5.5 5.5 0 0 0 -192.0 -108.59999992 L -192.0 -108.59999992 A 5.5 5.5 0 0 1 -186.5 -103.09999992 L -186.5 -103.09999992 Z " stroke="#191919" stroke-width="0.35 px" style="stroke-width:0.35;stroke-miterlimit:4;stroke-dasharray:none;fill:#cccccc;fill-rule: evenodd "/>
<path id="Part__Feature_f0096"  d="M -186.5 -95.695000014 L -186.5 -103.09999992 L -186.5 -103.09999992 L -186.5 -95.695000014 L -186.5 -95.695000014 Z " stroke="#191919" stroke-width="0.35 px" style="stroke-width:0.35;stroke-miterlimit:4;stroke-dasharray:none;fill:#cccccc;fill-rule: evenodd "/>
<path id="Part__Feature_f0097"  d="M 192.0 -108.59999992 A 5.5 5.5 0 0 0 186.5 -103.09999992 L 186.5 -103.09999992 A 5.5 5.5 0 0 1 192.0 -108.59999992 L 192.0 -108.59999992 Z " stroke="#191919" stroke-width="0.35 px" style="stroke-width:0.35;stroke-miterlimit:4;stroke-dasharray:none;fill:#cccccc;fill-rule: evenodd "/>
<path id="Part__Feature_f0098"  d="M 186.5 -103.09999992 L 186.5 -95.695000014 L 186.5 -95.695000014 L 186.5 -103.09999992 L 186.5 -103.09999992 Z " stroke="#191919" stroke-width="0.35 px" style="stroke-width:0.35;stroke-miterlimit:4;stroke-dasharray:none;fill:#cccccc;fill-rule: evenodd "/>
<path id="Part__Feature_f0099"  d="M 186.5 -30.90000008 A 5.5 5.5 0 0 0 192.0 -25.40000008 L 192.0 -25.40000008 A 5.5 5.5 0 0 1 186.5 -30.90000008 L 186.5 -30.90000008 Z " stroke="#191919" stroke-width="0.35 px" style="stroke-width:0.35;stroke-miterlimit:4;stroke-dasharray:none;fill:#cccccc;fill-rule: evenodd "/>
<path id="Part__Feature_f0100"  d="M 186.5 -38.304999986 L 186.5 -30.90000008 L 186.5 -30.90000008 L 186.5 -38.304999986 L 186.5 -38.304999986 Z " stroke="#191919" stroke-width="0.35 px" style="stroke-width:0.35;stroke-miterlimit:4;stroke-dasharray:none;fill:#cccccc;fill-rule: evenodd "/>
<path id="Part__Feature_f0101"  d="M -27.1 -81.263899942 A 4.5 4.5 0 1 1 -27.1 -90.263899942 L -27.1 -90.263899942 A 4.5 4.5 0 1 0 -27.1 -81.263899942 L -27.1 -81.263899942 Z " stroke="#191919" stroke-width="0.35 px" style="stroke-width:0.35;stroke-miterlimit:4;stroke-dasharray:none;fill:#cccccc;fill-rule: evenodd "/>
<path id="Part__Feature_f0102"  d="M 27.1 -81.263899942 L -27.1 -81.263899942 L -27.1 -81.263899942 L 27.1 -81.263899942 L 27.1 -81.263899942 Z " stroke="#191919" stroke-width="0.35 px" style="stroke-width:0.35;stroke-miterlimit:4;stroke-dasharray:none;fill:#cccccc;fill-rule: evenodd "/>
<path id="Part__Feature_f0103"  d="M 27.1 -90.263899942 L 27.1 -90.263899942 A 4.5 4.5 0 0 1 31.6 -85.763899942 L 31.6 -85.763899942 A 4.5 4.5 0 0 0 27.1 -90.263899942 Z " stroke="#191919" stroke-width="0.35 px" style="stroke-width:0.35;stroke-miterlimit:4;stroke-dasharray:none;fill:#cccccc;fill-rule: evenodd "/>
<path id="Part__Feature_f0104"  d="M -27.1 -90.263899942 L 27.1 -90.263899942 L 27.1 -90.263899942 L -27.1 -90.263899942 L -27.1 -90.263899942 Z " stroke="#191919" stroke-width="0.35 px" style="stroke-width:0.35;stroke-miterlimit:4;stroke-dasharray:none;fill:#cccccc;fill-rule: evenodd "/>
<path id="Part__Feature_f0105"  d="M 170.1 -52.736100058 L 170.1 -52.736100058 A 4.5 4.5 0 0 1 174.6 -48.236100058 L 174.6 -48.236100058 A 4.5 4.5 0 0 0 170.1 -52.736100058 Z " stroke="#191919" stroke-width="0.35 px" style="stroke-width:0.35;stroke-miterlimit:4;stroke-dasharray:none;fill:#cccccc;fill-rule: evenodd "/>
<path id="Part__Feature_f0106"  d="M 141.9 -52.736100058 L 170.1 -52.736100058 L 170.1 -52.736100058 L 141.9 -52.736100058 L 141.9 -52.736100058 Z " stroke="#191919" stroke-width="0.35 px" style="stroke-width:0.35;stroke-miterlimit:4;stroke-dasharray:none;fill:#cccccc;fill-rule: evenodd "/>
<path id="Part__Feature_f0107"  d="M 141.9 -43.736100058 A 4.5 4.5 0 0 1 141.9 -52.736100058 L 141.9 -52.736100058 A 4.5 4.5 0 0 0 141.9 -43.736100058 L 141.9 -43.736100058 Z " stroke="#191919" stroke-width="0.35 px" style="stroke-width:0.35;stroke-miterlimit:4;stroke-dasharray:none;fill:#cccccc;fill-rule: evenodd "/>
<path id="Part__Feature_f0108"  d="M 170.1 -43.736100058 L 141.9 -43.736100058 L 141.9 -43.736100058 L 170.1 -43.736100058 L 170.1 -43.736100058 Z " stroke="#191919" stroke-width="0.35 px" style="stroke-width:0.35;stroke-miterlimit:4;stroke-dasharray:none;fill:#cccccc;fill-rule: evenodd "/>
<path id="Part__Feature_f0109"  d="M -66.1 -43.736100058 A 4.5 4.5 0 1 1 -66.1 -52.736100058 L -66.1 -52.736100058 A 4.5 4.5 0 1 0 -66.1 -43.736100058 L -66.1 -43.736100058 Z " stroke="#191919" stroke-width="0.35 px" style="stroke-width:0.35;stroke-miterlimit:4;stroke-dasharray:none;fill:#cccccc;fill-rule: evenodd "/>
<path id="Part__Feature_f0110"  d="M -37.9 -43.736100058 L -66.1 -43.736100058 L -66.1 -43.736100058 L -37.9 -43.736100058 L -37.9 -43.736100058 Z " stroke="#191919" stroke-width="0.35 px" style="stroke-width:0.35;stroke-miterlimit:4;stroke-dasharray:none;fill:#cccccc;fill-rule: evenodd "/>
<path id="Part__Feature_f0111"  d="M -37.9 -52.736100058 L -37.9 -52.736100058 A 4.5 4.5 0 0 1 -33.4 -48.236100058 L -33.4 -48.236100058 A 4.5 4.5 0 0 0 -37.9 -52.736100058 Z " stroke="#191919" stroke-width="0.35 px" style="stroke-width:0.35;stroke-miterlimit:4;stroke-dasharray:none;fill:#cccccc;fill-rule: evenodd "/>
<path id="Part__Feature_f0112"  d="M -66.1 -52.736100058 L -37.9 -52.736100058 L -37.9 -52.736100058 L -66.1 -52.736100058 L -66.1 -52.736100058 Z " stroke="#191919" stroke-width="0.35 px" style="stroke-width:0.35;stroke-miterlimit:4;stroke-dasharray:none;fill:#cccccc;fill-rule: evenodd "/>
<path id="Part__Feature_f0113"  d="M -131.1 -43.736100058 A 4.5 4.5 0 0 1 -131.1 -52.736100058 L -131.1 -52.736100058 A 4.5 4.5 0 0 0 -131.1 -43.736100058 L -131.1 -43.736100058 Z " stroke="#191919" stroke-width="0.35 px" style="stroke-width:0.35;stroke-miterlimit:4;stroke-dasharray:none;fill:#cccccc;fill-rule: evenodd "/>
<path id="Part__Feature_f0114"  d="M -76.9 -43.736100058 L -131.1 -43.736100058 L -131.1 -43.736100058 L -76.9 -43.736100058 L -76.9 -43.736100058 Z " stroke="#191919" stroke-width="0.35 px" style="stroke-width:0.35;stroke-miterlimit:4;stroke-dasharray:none;fill:#cccccc;fill-rule: evenodd "/>
<path id="Part__Feature_f0115"  d="M -76.9 -52.736100058 L -76.9 -52.736100058 A 4.5 4.5 0 0 1 -72.4 -48.236100058 L -72.4 -48.236100058 A 4.5 4.5 0 0 0 -76.9 -52.736100058 Z " stroke="#191919" stroke-width="0.35 px" style="stroke-width:0.35;stroke-miterlimit:4;stroke-dasharray:none;fill:#cccccc;fill-rule: evenodd "/>
<path id="Part__Feature_f0116"  d="M -131.1 -52.736100058 L -76.9 -52.736100058 L -76.9 -52.736100058 L -131.1 -52.736100058 L -131.1 -52.736100058 Z " stroke="#191919" stroke-width="0.35 px" style="stroke-width:0.35;stroke-miterlimit:4;stroke-dasharray:none;fill:#cccccc;fill-rule: evenodd "/>
<path id="Part__Feature_f0117"  d="M -170.1 -43.736100058 A 4.5 4.5 0 0 1 -170.1 -52.736100058 L -170.1 -52.736100058 A 4.5 4.5 0 0 0 -170.1 -43.736100058 L -170.1 -43.736100058 Z " stroke="#191919" stroke-width="0.35 px" style="stroke-width:0.35;stroke-miterlimit:4;stroke-dasharray:none;fill:#cccccc;fill-rule: evenodd "/>
<path id="Part__Feature_f0118"  d="M -141.9 -43.736100058 L -170.1 -43.736100058 L -170.1 -43.736100058 L -141.9 -43.736100058 L -141.9 -43.736100058 Z " stroke="#191919" stroke-width="0.35 px" style="stroke-width:0.35;stroke-miterlimit:4;stroke-dasharray:none;fill:#cccccc;fill-rule: evenodd "/>
<path id="Part__Feature_f0119"  d="M -141.9 -52.736100058 L -141.9 -52.736100058 A 4.5 4.5 0 0 1 -137.4 -48.236100058 L -137.4 -48.236100058 A 4.5 4.5 0 0 0 -141.9 -52.736100058 Z " stroke="#191919" stroke-width="0.35 px" style="stroke-width:0.35;stroke-miterlimit:4;stroke-dasharray:none;fill:#cccccc;fill-rule: evenodd "/>
<path id="Part__Feature_f0120"  d="M -170.1 -52.736100058 L -141.9 -52.736100058 L -141.9 -52.736100058 L -170.1 -52.736100058 L -170.1 -52.736100058 Z " stroke="#191919" stroke-width="0.35 px" style="stroke-width:0.35;stroke-miterlimit:4;stroke-dasharray:none;fill:#cccccc;fill-rule: evenodd "/>
<path id="Part__Feature_f0121"  d="M -170.1 -81.263899942 A 4.5 4.5 0 0 1 -170.1 -90.263899942 L -170.1 -90.263899942 A 4.5 4.5 0 0 0 -170.1 -81.263899942 L -170.1 -81.263899942 Z " stroke="#191919" stroke-width="0.35 px" style="stroke-width:0.35;stroke-miterlimit:4;stroke-dasharray:none;fill:#cccccc;fill-rule: evenodd "/>
<path id="Part__Feature_f0122"  d="M -141.9 -81.263899942 L -170.1 -81.263899942 L -170.1 -81.263899942 L -141.9 -81.263899942 L -141.9 -81.263899942 Z " stroke="#191919" stroke-width="0.35 px" style="stroke-width:0.35;stroke-miterlimit:4;stroke-dasharray:none;fill:#cccccc;fill-rule: evenodd "/>
<path id="Part__Feature_f0123"  d="M -141.9 -90.263899942 L -141.9 -90.263899942 A 4.5 4.5 0 0 1 -137.4 -85.763899942 L -137.4 -85.763899942 A 4.5 4.5 0 0 0 -141.9 -90.263899942 Z " stroke="#191919" stroke-width="0.35 px" style="stroke-width:0.35;stroke-miterlimit:4;stroke-dasharray:none;fill:#cccccc;fill-rule: evenodd "/>
<path id="Part__Feature_f0124"  d="M -170.1 -90.263899942 L -141.9 -90.263899942 L -141.9 -90.263899942 L -170.1 -90.263899942 L -170.1 -90.263899942 Z " stroke="#191919" stroke-width="0.35 px" style="stroke-width:0.35;stroke-miterlimit:4;stroke-dasharray:none;fill:#cccccc;fill-rule: evenodd "/>
<path id="Part__Feature_f0125"  d="M -131.1 -81.263899942 A 4.5 4.5 0 0 1 -131.1 -90.263899942 L -131.1 -90.263899942 A 4.5 4.5 0 0 0 -131.1 -81.263899942 L -131.1 -81.263899942 Z " stroke="#191919" stroke-width="0.35 px" style="stroke-width:0.35;stroke-miterlimit:4;stroke-dasharray:none;fill:#cccccc;fill-rule: evenodd "/>
<path id="Part__Feature_f0126"  d="M -76.9 -81.263899942 L -131.1 -81.263899942 L -131.1 -81.263899942 L -76.9 -81.263899942 L -76.9 -81.263899942 Z " stroke="#191919" stroke-width="0.35 px" style="stroke-width:0.35;stroke-miterlimit:4;stroke-dasharray:none;fill:#cccccc;fill-rule: evenodd "/>
<path id="Part__Feature_f0127"  d="M -76.9 -90.263899942 L -76.9 -90.263899942 A 4.5 4.5 0 0 1 -72.4 -85.763899942 L -72.4 -85.763899942 A 4.5 4.5 0 0 0 -76.9 -90.263899942 Z " stroke="#191919" stroke-width="0.35 px" style="stroke-width:0.35;stroke-miterlimit:4;stroke-dasharray:none;fill:#cccccc;fill-rule: evenodd "/>
<path id="Part__Feature_f0128"  d="M -131.1 -90.263899942 L -76.9 -90.263899942 L -76.9 -90.263899942 L -131.1 -90.263899942 L -131.1 -90.263899942 Z " stroke="#191919" stroke-width="0.35 px" style="stroke-width:0.35;stroke-miterlimit:4;stroke-dasharray:none;fill:#cccccc;fill-rule: evenodd "/>
<path id="Part__Feature_f0129"  d="M -66.1 -81.263899942 A 4.5 4.5 0 0 1 -66.1 -90.263899942 L -66.1 -90.263899942 A 4.5 4.5 0 0 0 -66.1 -81.263899942 L -66.1 -81.263899942 Z " stroke="#191919" stroke-width="0.35 px" style="stroke-width:0.35;stroke-miterlimit:4;stroke-dasharray:none;fill:#cccccc;fill-rule: evenodd "/>
<path id="Part__Feature_f0130"  d="M -37.9 -81.263899942 L -66.1 -81.263899942 L -66.1 -81.263899942 L -37.9 -81.263899942 L -37.9 -81.263899942 Z " stroke="#191919" stroke-width="0.35 px" style="stroke-width:0.35;stroke-miterlimit:4;stroke-dasharray:none;fill:#cccccc;fill-rule: evenodd "/>
<path id="Part__Feature_f0131"  d="M -37.9 -90.263899942 L -37.9 -90.263899942 A 4.5 4.5 0 0 1 -33.4 -85.763899942 L -33.4 -85.763899942 A 4.5 4.5 0 0 0 -37.9 -90.263899942 Z " stroke="#191919" stroke-width="0.35 px" style="stroke-width:0.35;stroke-miterlimit:4;stroke-dasharray:none;fill:#cccccc;fill-rule: evenodd "/>
<path id="Part__Feature_f0132"  d="M -66.1 -90.263899942 L -37.9 -90.263899942 L -37.9 -90.263899942 L -66.1 -90.263899942 L -66.1 -90.263899942 Z " stroke="#191919" stroke-width="0.35 px" style="stroke-width:0.35;stroke-miterlimit:4;stroke-dasharray:none;fill:#cccccc;fill-rule: evenodd "/>
<path id="Part__Feature_f0133"  d="M -27.1 -43.736100058 A 4.5 4.5 0 1 1 -27.1 -52.736100058 L -27.1 -52.736100058 A 4.5 4.5 0 1 0 -27.1 -43.736100058 L -27.1 -43.736100058 Z " stroke="#191919" stroke-width="0.35 px" style="stroke-width:0.35;stroke-miterlimit:4;stroke-dasharray:none;fill:#cccccc;fill-rule: evenodd "/>
<path id="Part__Feature_f0134"  d="M 27.1 -43.736100058 L -27.1 -43.736100058 L -27.1 -43.736100058 L 27.1 -43.736100058 L 27.1 -43.736100058 Z " stroke="#191919" stroke-width="0.35 px" style="stroke-width:0.35;stroke-miterlimit:4;stroke-dasharray:none;fill:#cccccc;fill-rule: evenodd "/>
<path id="Part__Feature_f0135"  d="M 27.1 -52.736100058 L 27.1 -52.736100058 A 4.5 4.5 0 0 1 31.6 -48.236100058 L 31.6 -48.236100058 A 4.5 4.5 0 0 0 27.1 -52.736100058 Z " stroke="#191919" stroke-width="0.35 px" style="stroke-width:0.35;stroke-miterlimit:4;stroke-dasharray:none;fill:#cccccc;fill-rule: evenodd "/>
<path id="Part__Feature_f0136"  d="M -27.1 -52.736100058 L 27.1 -52.736100058 L 27.1 -52.736100058 L -27.1 -52.736100058 L -27.1 -52.736100058 Z " stroke="#191919" stroke-width="0.35 px" style="stroke-width:0.35;stroke-miterlimit:4;stroke-dasharray:none;fill:#cccccc;fill-rule: evenodd "/>
<path id="Part__Feature_f0137"  d="M 66.1 -90.263899942 L 66.1 -90.263899942 A 4.5 4.5 0 0 1 70.6 -85.763899942 L 70.6 -85.763899942 A 4.5 4.5 0 0 0 66.1 -90.263899942 Z " stroke="#191919" stroke-width="0.35 px" style="stroke-width:0.35;stroke-miterlimit:4;stroke-dasharray:none;fill:#cccccc;fill-rule: evenodd "/>
<path id="Part__Feature_f0138"  d="M 37.9 -90.263899942 L 66.1 -90.263899942 L 66.1 -90.263899942 L 37.9 -90.263899942 L 37.9 -90.263899942 Z " stroke="#191919" stroke-width="0.35 px" style="stroke-width:0.35;stroke-miterlimit:4;stroke-dasharray:none;fill:#cccccc;fill-rule: evenodd "/>
<path id="Part__Feature_f0139"  d="M 37.9 -81.263899942 A 4.5 4.5 0 1 1 37.9 -90.263899942 L 37.9 -90.263899942 A 4.5 4.5 0 1 0 37.9 -81.263899942 L 37.9 -81.263899942 Z " stroke="#191919" stroke-width="0.35 px" style="stroke-width:0.35;stroke-miterlimit:4;stroke-dasharray:none;fill:#cccccc;fill-rule: evenodd "/>
<path id="Part__Feature_f0140"  d="M 66.1 -81.263899942 L 37.9 -81.263899942 L 37.9 -81.263899942 L 66.1 -81.263899942 L 66.1 -81.263899942 Z " stroke="#191919" stroke-width="0.35 px" style="stroke-width:0.35;stroke-miterlimit:4;stroke-dasharray:none;fill:#cccccc;fill-rule: evenodd "/>
<path id="Part__Feature_f0141"  d="M -164.35 -56.75 A 10.25 10.25 0 0 1 -164.35 -77.25 L -164.35 -77.25 A 10.25 10.25 0 0 0 -164.35 -56.75 L -164.35 -56.75 Z " stroke="#191919" stroke-width="0.35 px" style="stroke-width:0.35;stroke-miterlimit:4;stroke-dasharray:none;fill:#cccccc;fill-rule: evenodd "/>
<path id="Part__Feature_f0142"  d="M -95.65 -56.75 L -164.35 -56.75 L -164.35 -56.75 L -95.65 -56.75 L -95.65 -56.75 Z " stroke="#191919" stroke-width="0.35 px" style="stroke-width:0.35;stroke-miterlimit:4;stroke-dasharray:none;fill:#cccccc;fill-rule: evenodd "/>
<path id="Part__Feature_f0143"  d="M -95.65 -77.25 L -95.65 -77.25 A 10.25 10.25 0 0 1 -85.4 -67.0 L -85.4 -67.0 A 10.25 10.25 0 0 0 -95.65 -77.25 Z " stroke="#191919" stroke-width="0.35 px" style="stroke-width:0.35;stroke-miterlimit:4;stroke-dasharray:none;fill:#cccccc;fill-rule: evenodd "/>
<path id="Part__Feature_f0144"  d="M -164.35 -77.25 L -95.65 -77.25 L -95.65 -77.25 L -164.35 -77.25 L -164.35 -77.25 Z " stroke="#191919" stroke-width="0.35 px" style="stroke-width:0.35;stroke-miterlimit:4;stroke-dasharray:none;fill:#cccccc;fill-rule: evenodd "/>
<path id="Part__Feature_f0145"  d="M 164.35 -77.25 L 164.35 -77.25 A 10.25 10.25 0 0 1 174.6 -67.0 L 174.6 -67.0 A 10.25 10.25 0 0 0 164.35 -77.25 Z " stroke="#191919" stroke-width="0.35 px" style="stroke-width:0.35;stroke-miterlimit:4;stroke-dasharray:none;fill:#cccccc;fill-rule: evenodd "/>
<path id="Part__Feature_f0146"  d="M 95.65 -77.25 L 164.35 -77.25 L 164.35 -77.25 L 95.65 -77.25 L 95.65 -77.25 Z " stroke="#191919" stroke-width="0.35 px" style="stroke-width:0.35;stroke-miterlimit:4;stroke-dasharray:none;fill:#cccccc;fill-rule: evenodd "/>
<path id="Part__Feature_f0147"  d="M 95.65 -56.75 A 10.25 10.25 0 0 1 95.65 -77.25 L 95.65 -77.25 A 10.25 10.25 0 0 0 95.65 -56.75 L 95.65 -56.75 Z " stroke="#191919" stroke-width="0.35 px" style="stroke-width:0.35;stroke-miterlimit:4;stroke-dasharray:none;fill:#cccccc;fill-rule: evenodd "/>
<path id="Part__Feature_f0148"  d="M 164.35 -56.75 L 95.65 -56.75 L 95.65 -56.75 L 164.35 -56.75 L 164.35 -56.75 Z " stroke="#191919" stroke-width="0.35 px" style="stroke-width:0.35;stroke-miterlimit:4;stroke-dasharray:none;fill:#cccccc;fill-rule: evenodd "/>
<path id="Part__Feature_f0149"  d="M 63.6943569288 -77.25 L 63.6943569288 -77.25 A 10.25 10.25 0 0 1 73.9443569288 -67.0 L 73.9443569288 -67.0 A 10.25 10.25 0 0 0 63.6943569288 -77.25 Z " stroke="#191919" stroke-width="0.35 px" style="stroke-width:0.35;stroke-miterlimit:4;stroke-dasharray:none;fill:#cccccc;fill-rule: evenodd "/>
<path id="Part__Feature_f0150"  d="M -63.6943569288 -77.25 L 63.6943569288 -77.25 L 63.6943569288 -77.25 L -63.6943569288 -77.25 L -63.6943569288 -77.25 Z " stroke="#191919" stroke-width="0.35 px" style="stroke-width:0.35;stroke-miterlimit:4;stroke-dasharray:none;fill:#cccccc;fill-rule: evenodd "/>
<path id="Part__Feature_f0151"  d="M -63.6943569288 -56.75 A 10.25 10.25 0 0 1 -63.6943569288 -77.25 L -63.6943569288 -77.25 A 10.25 10.25 0 0 0 -63.6943569288 -56.75 L -63.6943569288 -56.75 Z " stroke="#191919" stroke-width="0.35 px" style="stroke-width:0.35;stroke-miterlimit:4;stroke-dasharray:none;fill:#cccccc;fill-rule: evenodd "/>
<path id="Part__Feature_f0152"  d="M 63.6943569288 -56.75 L -63.6943569288 -56.75 L -63.6943569288 -56.75 L 63.6943569288 -56.75 L 63.6943569288 -56.75 Z " stroke="#191919" stroke-width="0.35 px" style="stroke-width:0.35;stroke-miterlimit:4;stroke-dasharray:none;fill:#cccccc;fill-rule: evenodd "/>
<path id="Part__Feature_f0153"  d="M 66.1 -52.736100058 L 66.1 -52.736100058 A 4.5 4.5 0 0 1 70.6 -48.236100058 L 70.6 -48.236100058 A 4.5 4.5 0 0 0 66.1 -52.736100058 Z " stroke="#191919" stroke-width="0.35 px" style="stroke-width:0.35;stroke-miterlimit:4;stroke-dasharray:none;fill:#cccccc;fill-rule: evenodd "/>
<path id="Part__Feature_f0154"  d="M 37.9 -52.736100058 L 66.1 -52.736100058 L 66.1 -52.736100058 L 37.9 -52.736100058 L 37.9 -52.736100058 Z " stroke="#191919" stroke-width="0.35 px" style="stroke-width:0.35;stroke-miterlimit:4;stroke-dasharray:none;fill:#cccccc;fill-rule: evenodd "/>
<path id="Part__Feature_f0155"  d="M 37.9 -43.736100058 A 4.5 4.5 0 1 1 37.9 -52.736100058 L 37.9 -52.736100058 A 4.5 4.5 0 1 0 37.9 -43.736100058 L 37.9 -43.736100058 Z " stroke="#191919" stroke-width="0.35 px" style="stroke-width:0.35;stroke-miterlimit:4;stroke-dasharray:none;fill:#cccccc;fill-rule: evenodd "/>
<path id="Part__Feature_f0156"  d="M 66.1 -43.736100058 L 37.9 -43.736100058 L 37.9 -43.736100058 L 66.1 -43.736100058 L 66.1 -43.736100058 Z " stroke="#191919" stroke-width="0.35 px" style="stroke-width:0.35;stroke-miterlimit:4;stroke-dasharray:none;fill:#cccccc;fill-rule: evenodd "/>
<path id="Part__Feature_f0157"  d="M 131.1 -52.736100058 L 131.1 -52.736100058 A 4.5 4.5 0 0 1 135.6 -48.236100058 L 135.6 -48.236100058 A 4.5 4.5 0 0 0 131.1 -52.736100058 Z " stroke="#191919" stroke-width="0.35 px" style="stroke-width:0.35;stroke-miterlimit:4;stroke-dasharray:none;fill:#cccccc;fill-rule: evenodd "/>
<path id="Part__Feature_f0158"  d="M 76.9 -52.736100058 L 131.1 -52.736100058 L 131.1 -52.736100058 L 76.9 -52.736100058 L 76.9 -52.736100058 Z " stroke="#191919" stroke-width="0.35 px" style="stroke-width:0.35;stroke-miterlimit:4;stroke-dasharray:none;fill:#cccccc;fill-rule: evenodd "/>
<path id="Part__Feature_f0159"  d="M 76.9 -43.736100058 A 4.5 4.5 0 0 1 76.9 -52.736100058 L 76.9 -52.736100058 A 4.5 4.5 0 0 0 76.9 -43.736100058 L 76.9 -43.736100058 Z " stroke="#191919" stroke-width="0.35 px" style="stroke-width:0.35;stroke-miterlimit:4;stroke-dasharray:none;fill:#cccccc;fill-rule: evenodd "/>
<path id="Part__Feature_f0160"  d="M 131.1 -43.736100058 L 76.9 -43.736100058 L 76.9 -43.736100058 L 131.1 -43.736100058 L 131.1 -43.736100058 Z " stroke="#191919" stroke-width="0.35 px" style="stroke-width:0.35;stroke-miterlimit:4;stroke-dasharray:none;fill:#cccccc;fill-rule: evenodd "/>
<path id="Part__Feature_f0161"  d="M 131.1 -90.263899942 L 131.1 -90.263899942 A 4.5 4.5 0 0 1 135.6 -85.763899942 L 135.6 -85.763899942 A 4.5 4.5 0 0 0 131.1 -90.263899942 Z " stroke="#191919" stroke-width="0.35 px" style="stroke-width:0.35;stroke-miterlimit:4;stroke-dasharray:none;fill:#cccccc;fill-rule: evenodd "/>
<path id="Part__Feature_f0162"  d="M 76.9 -90.263899942 L 131.1 -90.263899942 L 131.1 -90.263899942 L 76.9 -90.263899942 L 76.9 -90.263899942 Z " stroke="#191919" stroke-width="0.35 px" style="stroke-width:0.35;stroke-miterlimit:4;stroke-dasharray:none;fill:#cccccc;fill-rule: evenodd "/>
<path id="Part__Feature_f0163"  d="M 76.9 -81.263899942 A 4.5 4.5 0 0 1 76.9 -90.263899942 L 76.9 -90.263899942 A 4.5 4.5 0 0 0 76.9 -81.263899942 L 76.9 -81.263899942 Z " stroke="#191919" stroke-width="0.35 px" style="stroke-width:0.35;stroke-miterlimit:4;stroke-dasharray:none;fill:#cccccc;fill-rule: evenodd "/>
<path id="Part__Feature_f0164"  d="M 131.1 -81.263899942 L 76.9 -81.263899942 L 76.9 -81.263899942 L 131.1 -81.263899942 L 131.1 -81.263899942 Z " stroke="#191919" stroke-width="0.35 px" style="stroke-width:0.35;stroke-miterlimit:4;stroke-dasharray:none;fill:#cccccc;fill-rule: evenodd "/>
<path id="Part__Feature_f0165"  d="M 170.1 -90.263899942 L 170.1 -90.263899942 A 4.5 4.5 0 0 1 174.6 -85.763899942 L 174.6 -85.763899942 A 4.5 4.5 0 0 0 170.1 -90.263899942 Z " stroke="#191919" stroke-width="0.35 px" style="stroke-width:0.35;stroke-miterlimit:4;stroke-dasharray:none;fill:#cccccc;fill-rule: evenodd "/>
<path id="Part__Feature_f0166"  d="M 141.9 -90.263899942 L 170.1 -90.263899942 L 170.1 -90.263899942 L 141.9 -90.263899942 L 141.9 -90.263899942 Z " stroke="#191919" stroke-width="0.35 px" style="stroke-width:0.35;stroke-miterlimit:4;stroke-dasharray:none;fill:#cccccc;fill-rule: evenodd "/>
<path id="Part__Feature_f0167"  d="M 141.9 -81.263899942 A 4.5 4.5 0 0 1 141.9 -90.263899942 L 141.9 -90.263899942 A 4.5 4.5 0 0 0 141.9 -81.263899942 L 141.9 -81.263899942 Z " stroke="#191919" stroke-width="0.35 px" style="stroke-width:0.35;stroke-miterlimit:4;stroke-dasharray:none;fill:#cccccc;fill-rule: evenodd "/>
<path id="Part__Feature_f0168"  d="M 170.1 -81.263899942 L 141.9 -81.263899942 L 141.9 -81.263899942 L 170.1 -81.263899942 L 170.1 -81.263899942 Z " stroke="#191919" stroke-width="0.35 px" style="stroke-width:0.35;stroke-miterlimit:4;stroke-dasharray:none;fill:#cccccc;fill-rule: evenodd "/>
<path id="Part__Feature_f0169"  d="M -201.5 -56.5 L -201.5 -56.5 A 10.5 10.5 0 0 1 -201.5 -77.5 L -201.5 -77.5 A 10.5 10.5 0 0 0 -201.5 -56.5 Z " stroke="#191919" stroke-width="0.35 px" style="stroke-width:0.35;stroke-miterlimit:4;stroke-dasharray:none;fill:#cccccc;fill-rule: evenodd "/>
<path id="Part__Feature_f0170"  d="M -198.5 -56.5 L -198.5 -56.5 L -201.5 -56.5 L -201.5 -56.5 L -198.5 -56.5 Z " stroke="#191919" stroke-width="0.35 px" style="stroke-width:0.35;stroke-miterlimit:4;stroke-dasharray:none;fill:#cccccc;fill-rule: evenodd "/>
<path id="Part__Feature_f0171"  d="M -198.5 -77.5 L -198.5 -77.5 A 10.5 10.5 0 0 1 -188.0 -67.0 L -188.0 -67.0 A 10.5 10.5 0 0 0 -198.5 -77.5 Z " stroke="#191919" stroke-width="0.35 px" style="stroke-width:0.35;stroke-miterlimit:4;stroke-dasharray:none;fill:#cccccc;fill-rule: evenodd "/>
<path id="Part__Feature_f0172"  d="M -201.5 -77.5 L -201.5 -77.5 L -198.5 -77.5 L -198.5 -77.5 L -201.5 -77.5 Z " stroke="#191919" stroke-width="0.35 px" style="stroke-width:0.35;stroke-miterlimit:4;stroke-dasharray:none;fill:#cccccc;fill-rule: evenodd "/>
<path id="Part__Feature_f0173"  d="M 201.5 -77.5 L 201.5 -77.5 A 10.5 10.5 0 0 1 212.0 -67.0 L 212.0 -67.0 A 10.5 10.5 0 0 0 201.5 -77.5 Z " stroke="#191919" stroke-width="0.35 px" style="stroke-width:0.35;stroke-miterlimit:4;stroke-dasharray:none;fill:#cccccc;fill-rule: evenodd "/>
<path id="Part__Feature_f0174"  d="M 198.5 -77.5 L 198.5 -77.5 L 201.5 -77.5 L 201.5 -77.5 L 198.5 -77.5 Z " stroke="#191919" stroke-width="0.35 px" style="stroke-width:0.35;stroke-miterlimit:4;stroke-dasharray:none;fill:#cccccc;fill-rule: evenodd "/>
<path id="Part__Feature_f0175"  d="M 198.5 -56.5 L 198.5 -56.5 A 10.5 10.5 0 0 1 198.5 -77.5 L 198.5 -77.5 A 10.5 10.5 0 0 0 198.5 -56.5 Z " stroke="#191919" stroke-width="0.35 px" style="stroke-width:0.35;stroke-miterlimit:4;stroke-dasharray:none;fill:#cccccc;fill-rule: evenodd "/>
<path id="Part__Feature_f0176"  d="M 201.5 -56.5 L 201.5 -56.5 L 198.5 -56.5 L 198.5 -56.5 L 201.5 -56.5 Z " stroke="#191919" stroke-width="0.35 px" style="stroke-width:0.35;stroke-miterlimit:4;stroke-dasharray:none;fill:#cccccc;fill-rule: evenodd "/>
<path id="Part__Feature_f0177"  d="M 201.5 -77.5 L 201.5 -78.0 L 198.5 -78.0 L 198.5 -77.5 L 201.5 -77.5 Z " stroke="#191919" stroke-width="0.35 px" style="stroke-width:0.35;stroke-miterlimit:4;stroke-dasharray:none;fill:#cccccc;fill-rule: evenodd "/>
<path id="Part__Feature_f0178"  d="M 201.5 -78.0 L 201.5 -77.5 A 10.5 10.5 0 0 1 212.0 -67.0 L 212.5 -67.0 A 11.0 11.0 0 0 0 201.5 -78.0 Z " stroke="#191919" stroke-width="0.35 px" style="stroke-width:0.35;stroke-miterlimit:4;stroke-dasharray:none;fill:#cccccc;fill-rule: evenodd "/>
<path id="Part__Feature_f0179"  d="M 198.5 -78.0 L 198.5 -77.5 A 10.5 10.5 0 0 0 198.5 -56.5 L 198.5 -56.0 A 11.0 11.0 0 0 1 198.5 -78.0 Z " stroke="#191919" stroke-width="0.35 px" style="stroke-width:0.35;stroke-miterlimit:4;stroke-dasharray:none;fill:#cccccc;fill-rule: evenodd "/>
<path id="Part__Feature_f0180"  d="M 201.5 -56.5 L 201.5 -56.0 L 198.5 -56.0 L 198.5 -56.5 L 201.5 -56.5 Z " stroke="#191919" stroke-width="0.35 px" style="stroke-width:0.35;stroke-miterlimit:4;stroke-dasharray:none;fill:#cccccc;fill-rule: evenodd "/>
<path id="Part__Feature_f0181"  d="M -198.5 -77.5 L -198.5 -78.0 L -201.5 -78.0 L -201.5 -77.5 L -198.5 -77.5 Z " stroke="#191919" stroke-width="0.35 px" style="stroke-width:0.35;stroke-miterlimit:4;stroke-dasharray:none;fill:#cccccc;fill-rule: evenodd "/>
<path id="Part__Feature_f0182"  d="M -198.5 -78.0 L -198.5 -77.5 A 10.5 10.5 0 0 1 -188.0 -67.0 L -187.5 -67.0 A 11.0 11.0 0 0 0 -198.5 -78.0 Z " stroke="#191919" stroke-width="0.35 px" style="stroke-width:0.35;stroke-miterlimit:4;stroke-dasharray:none;fill:#cccccc;fill-rule: evenodd "/>
<path id="Part__Feature_f0183"  d="M -201.5 -78.0 L -201.5 -77.5 A 10.5 10.5 0 0 0 -201.5 -56.5 L -201.5 -56.0 A 11.0 11.0 0 0 1 -201.5 -78.0 Z " stroke="#191919" stroke-width="0.35 px" style="stroke-width:0.35;stroke-miterlimit:4;stroke-dasharray:none;fill:#cccccc;fill-rule: evenodd "/>
<path id="Part__Feature_f0184"  d="M -198.5 -56.5 L -198.5 -56.0 L -201.5 -56.0 L -201.5 -56.5 L -198.5 -56.5 Z " stroke="#191919" stroke-width="0.35 px" style="stroke-width:0.35;stroke-miterlimit:4;stroke-dasharray:none;fill:#cccccc;fill-rule: evenodd "/>
<path id="Part__Feature_f0185"  d="M 79.079499991 -67.0 L 79.079499991 -67.0 A 1.0795 1.0795 0 0 1 76.920499991 -67.0 L 76.920499991 -67.0 A 1.0795 1.0795 0 0 0 79.079499991 -67.0 Z " stroke="#191919" stroke-width="0.35 px" style="stroke-width:0.35;stroke-miterlimit:4;stroke-dasharray:none;fill:#cccccc;fill-rule: evenodd "/>
<path id="Part__Feature_f0186"  d="M -76.920499991 -67.0 L -76.920499991 -67.0 A 1.0795 1.0795 0 0 1 -79.079499991 -67.0 L -79.079499991 -67.0 A 1.0795 1.0795 0 0 0 -76.920499991 -67.0 Z " stroke="#191919" stroke-width="0.35 px" style="stroke-width:0.35;stroke-miterlimit:4;stroke-dasharray:none;fill:#cccccc;fill-rule: evenodd "/>
<path id="Part__Feature_f0187"  d="M -203.3918 -47.0 L -203.3918 -47.0 A 2.1082 2.1082 0 0 1 -207.6082 -47.0 L -207.6082 -47.0 A 2.1082 2.1082 0 0 0 -203.3918 -47.0 Z " stroke="#191919" stroke-width="0.35 px" style="stroke-width:0.35;stroke-miterlimit:4;stroke-dasharray:none;fill:#cccccc;fill-rule: evenodd "/>
<path id="Part__Feature_f0188"  d="M -203.3918 -87.0 L -203.3918 -87.0 A 2.1082 2.1082 0 0 1 -207.6082 -87.0 L -207.6082 -87.0 A 2.1082 2.1082 0 0 0 -203.3918 -87.0 Z " stroke="#191919" stroke-width="0.35 px" style="stroke-width:0.35;stroke-miterlimit:4;stroke-dasharray:none;fill:#cccccc;fill-rule: evenodd "/>
<path id="Part__Feature_f0189"  d="M -190.3918 -87.0 L -190.3918 -87.0 A 2.1082 2.1082 0 0 1 -194.6082 -87.0 L -194.6082 -87.0 A 2.1082 2.1082 0 0 0 -190.3918 -87.0 Z " stroke="#191919" stroke-width="0.35 px" style="stroke-width:0.35;stroke-miterlimit:4;stroke-dasharray:none;fill:#cccccc;fill-rule: evenodd "/>
<path id="Part__Feature_f0190"  d="M -190.3918 -47.0 L -190.3918 -47.0 A 2.1082 2.1082 0 0 1 -194.6082 -47.0 L -194.6082 -47.0 A 2.1082 2.1082 0 0 0 -190.3918 -47.0 Z " stroke="#191919" stroke-width="0.35 px" style="stroke-width:0.35;stroke-miterlimit:4;stroke-dasharray:none;fill:#cccccc;fill-rule: evenodd "/>
<path id="Part__Feature_f0191"  d="M 189.1082 -47.0 L 189.1082 -47.0 A 2.1082 2.1082 0 0 1 184.8918 -47.0 L 184.8918 -47.0 A 2.1082 2.1082 0 0 0 189.1082 -47.0 Z " stroke="#191919" stroke-width="0.35 px" style="stroke-width:0.35;stroke-miterlimit:4;stroke-dasharray:none;fill:#cccccc;fill-rule: evenodd "/>
<path id="Part__Feature_f0192"  d="M 189.1082 -87.0 L 189.1082 -87.0 A 2.1082 2.1082 0 0 1 184.8918 -87.0 L 184.8918 -87.0 A 2.1082 2.1082 0 0 0 189.1082 -87.0 Z " stroke="#191919" stroke-width="0.35 px" style="stroke-width:0.35;stroke-miterlimit:4;stroke-dasharray:none;fill:#cccccc;fill-rule: evenodd "/>
<path id="Part__Feature_f0193"  d="M 209.1082 -87.0 L 209.1082 -87.0 A 2.1082 2.1082 0 0 1 204.8918 -87.0 L 204.8918 -87.0 A 2.1082 2.1082 0 0 0 209.1082 -87.0 Z " stroke="#191919" stroke-width="0.35 px" style="stroke-width:0.35;stroke-miterlimit:4;stroke-dasharray:none;fill:#cccccc;fill-rule: evenodd "/>
<path id="Part__Feature_f0194"  d="M 209.1082 -47.0 L 209.1082 -47.0 A 2.1082 2.1082 0 0 1 204.8918 -47.0 L 204.8918 -47.0 A 2.1082 2.1082 0 0 0 209.1082 -47.0 Z " stroke="#191919" stroke-width="0.35 px" style="stroke-width:0.35;stroke-miterlimit:4;stroke-dasharray:none;fill:#cccccc;fill-rule: evenodd "/>
<path id="Part__Feature_f0195"  d="M -217.0 -24.90000008 A 1.0 1.0 0 0 0 -216.0 -24.90000008 L -216.0 -23.70000008 A 1.0 1.0 0 0 1 -217.0 -23.70000008 L -217.0 -24.90000008 Z " stroke="#191919" stroke-width="0.35 px" style="stroke-width:0.35;stroke-miterlimit:4;stroke-dasharray:none;fill:#cccccc;fill-rule: evenodd "/>
<path id="Part__Feature_f0196"  d="M -193.0 -24.90000008 A 1.0 1.0 0 0 0 -192.0 -24.90000008 L -192.0 -23.70000008 A 1.0 1.0 0 0 1 -193.0 -23.70000008 L -193.0 -24.90000008 Z " stroke="#191919" stroke-width="0.35 px" style="stroke-width:0.35;stroke-miterlimit:4;stroke-dasharray:none;fill:#cccccc;fill-rule: evenodd "/>
<path id="Part__Feature_f0197"  d="M -185.5 -37.804999986 A 1.0 1.0 0 0 0 -184.5 -37.804999986 L -184.5 -36.604999986 A 1.0 1.0 0 0 1 -185.5 -36.604999986 L -185.5 -37.804999986 Z " stroke="#191919" stroke-width="0.35 px" style="stroke-width:0.35;stroke-miterlimit:4;stroke-dasharray:none;fill:#cccccc;fill-rule: evenodd "/>
<path id="Part__Feature_f0198"  d="M 184.5 -37.804999986 A 1.0 1.0 0 0 0 185.5 -37.804999986 L 185.5 -36.604999986 A 1.0 1.0 0 0 1 184.5 -36.604999986 L 184.5 -37.804999986 Z " stroke="#191919" stroke-width="0.35 px" style="stroke-width:0.35;stroke-miterlimit:4;stroke-dasharray:none;fill:#cccccc;fill-rule: evenodd "/>
<path id="Part__Feature_f0199"  d="M 216.0 -24.90000008 A 1.0 1.0 0 0 0 217.0 -24.90000008 L 217.0 -23.70000008 A 1.0 1.0 0 0 1 216.0 -23.70000008 L 216.0 -24.90000008 Z " stroke="#191919" stroke-width="0.35 px" style="stroke-width:0.35;stroke-miterlimit:4;stroke-dasharray:none;fill:#cccccc;fill-rule: evenodd "/>
<path id="Part__Feature_f0200"  d="M 192.0 -24.90000008 A 1.0 1.0 0 0 0 193.0 -24.90000008 L 193.0 -23.70000008 A 1.0 1.0 0 0 1 192.0 -23.70000008 L 192.0 -24.90000008 Z " stroke="#191919" stroke-width="0.35 px" style="stroke-width:0.35;stroke-miterlimit:4;stroke-dasharray:none;fill:#cccccc;fill-rule: evenodd "/>
<path id="Part__Feature_f0201"  d="M 185.5 -96.195000014 A 1.0 1.0 0 0 0 184.5 -96.195000014 L 184.5 -97.395000014 A 1.0 1.0 0 0 1 185.5 -97.395000014 L 185.5 -96.195000014 Z " stroke="#191919" stroke-width="0.35 px" style="stroke-width:0.35;stroke-miterlimit:4;stroke-dasharray:none;fill:#cccccc;fill-rule: evenodd "/>
<path id="Part__Feature_f0202"  d="M -184.5 -96.195000014 A 1.0 1.0 0 0 0 -185.5 -96.195000014 L -185.5 -97.395000014 A 1.0 1.0 0 0 1 -184.5 -97.395000014 L -184.5 -96.195000014 Z " stroke="#191919" stroke-width="0.35 px" style="stroke-width:0.35;stroke-miterlimit:4;stroke-dasharray:none;fill:#cccccc;fill-rule: evenodd "/>
<path id="Part__Feature_f0203"  d="M -192.0 -109.09999992 A 1.0 1.0 0 0 0 -193.0 -109.09999992 L -193.0 -110.29999992 A 1.0 1.0 0 0 1 -192.0 -110.29999992 L -192.0 -109.09999992 Z " stroke="#191919" stroke-width="0.35 px" style="stroke-width:0.35;stroke-miterlimit:4;stroke-dasharray:none;fill:#cccccc;fill-rule: evenodd "/>
<path id="Part__Feature_f0204"  d="M -216.0 -109.09999992 A 1.0 1.0 0 0 0 -217.0 -109.09999992 L -217.0 -110.29999992 A 1.0 1.0 0 0 1 -216.0 -110.29999992 L -216.0 -109.09999992 Z " stroke="#191919" stroke-width="0.35 px" style="stroke-width:0.35;stroke-miterlimit:4;stroke-dasharray:none;fill:#cccccc;fill-rule: evenodd "/>
<path id="Part__Feature_f0205"  d="M 217.0 -109.09999992 A 1.0 1.0 0 0 0 216.0 -109.09999992 L 216.0 -110.29999992 A 1.0 1.0 0 0 1 217.0 -110.29999992 L 217.0 -109.09999992 Z " stroke="#191919" stroke-width="0.35 px" style="stroke-width:0.35;stroke-miterlimit:4;stroke-dasharray:none;fill:#cccccc;fill-rule: evenodd "/>
<path id="Part__Feature_f0206"  d="M 193.0 -109.09999992 A 1.0 1.0 0 0 0 192.0 -109.09999992 L 192.0 -110.29999992 A 1.0 1.0 0 0 1 193.0 -110.29999992 L 193.0 -109.09999992 Z " stroke="#191919" stroke-width="0.35 px" style="stroke-width:0.35;stroke-miterlimit:4;stroke-dasharray:none;fill:#cccccc;fill-rule: evenodd "/>
<title>150-0183 rev B</title>
</g>
</svg>